<svg width="750" height="580" viewBox="0 0 750 580" fill="none" xmlns="http://www.w3.org/2000/svg">
<path d="M79.5586 380.085C79.5586 380.085 90.3586 397.221 86.5046 401.861C82.6506 406.501 115.455 406.617 115.455 406.617C115.455 406.617 110.527 381.689 111.977 375.952L79.5586 380.085Z" fill="#FFB9B9"/>
<path d="M96.8253 386.296C115.537 386.296 130.705 371.127 130.705 352.416C130.705 333.704 115.537 318.536 96.8253 318.536C78.1139 318.536 62.9453 333.704 62.9453 352.416C62.9453 371.127 78.1139 386.296 96.8253 386.296Z" fill="#090814"/>
<path d="M176.51 536.052V556.137L196.594 551.952L194.921 537.726L176.51 536.052Z" fill="#FFB9B9"/>
<path d="M247.641 539.4L303.71 548.605L289.483 569.526C289.483 569.526 250.151 556.136 240.109 556.136C230.067 556.136 247.641 539.4 247.641 539.4Z" fill="#FFB9B9"/>
<path d="M120.441 499.231C120.441 499.231 162.284 450.694 175.673 453.204C189.062 455.714 194.921 470.778 194.921 470.778L202.453 545.258C202.453 545.258 175.674 547.769 175.674 545.258C175.674 542.747 170.653 489.189 170.653 489.189C170.653 489.189 131.321 576.222 110.4 518.479L120.441 499.231Z" fill="#011F59"/>
<path d="M52.6562 531.868C52.6562 531.868 53.4932 575.711 78.5982 578.221C103.703 580.731 131.32 559.484 131.32 559.484L176.51 537.835C176.51 537.835 230.069 566.179 245.969 558.648C245.969 558.648 262.706 541.074 251.827 536.053C240.948 531.032 250.99 536.053 250.99 536.053L186.552 502.579C186.552 502.579 173.999 499.232 152.241 508.437C130.483 517.642 101.193 521.827 101.193 521.827L52.6562 531.868Z" fill="#011F59"/>
<path d="M94.4986 388.767C108.364 388.767 119.605 377.527 119.605 363.661C119.605 349.795 108.364 338.555 94.4986 338.555C80.6329 338.555 69.3926 349.795 69.3926 363.661C69.3926 377.527 80.6329 388.767 94.4986 388.767Z" fill="#FFB9B9"/>
<path d="M130.482 433.956L128.808 469.104C128.808 469.104 129.645 515.131 122.113 518.478C118.305 520.168 110.656 523.566 103.585 527.278C98.2791 530.056 93.3001 533.002 90.5221 535.538C89.7855 536.165 89.1503 536.901 88.6391 537.722C85.2921 543.58 63.5331 542.743 58.5121 538.559C53.4911 534.375 56.8381 543.58 52.6541 545.254C48.6041 546.877 42.988 533.605 46.428 513.788C46.537 513.127 46.6621 512.457 46.7961 511.78C50.6371 492.574 44.6031 446.572 45.5321 428.798C45.5863 427.44 45.7289 426.087 45.9591 424.748C48.4701 411.358 80.5041 384.11 86.4961 395.718C93.8771 410.045 110.832 396.957 113.744 390.437C130.481 389.6 136.344 409.685 136.344 409.685L130.482 433.956Z" fill="#6C63FF"/>
<path d="M198.268 548.605C198.268 548.605 184.878 553.626 180.694 552.789C176.51 551.952 172.325 555.3 172.325 560.321C172.325 565.342 167.304 577.058 174.836 577.895C182.368 578.732 213.336 577.058 220.026 579.569C220.026 579.569 250.153 580.406 247.642 567.853C245.131 555.3 232.579 556.137 232.579 556.137C232.579 556.137 198.268 554.462 198.268 548.605Z" fill="#2F2E41"/>
<path d="M296.18 551.116C296.18 551.116 297.854 546.095 300.364 546.095C302.874 546.095 322.959 549.442 325.47 548.606C327.981 547.77 357.27 546.095 352.249 560.322C347.228 574.549 330.491 576.222 330.491 576.222C330.491 576.222 300.364 572.875 296.18 573.711C291.996 574.547 276.932 573.711 279.443 569.527C281.954 565.343 297.854 557.811 296.18 551.116Z" fill="#2F2E41"/>
<path d="M220 430.913L224.6 449.852C224.651 450.063 224.643 450.284 224.577 450.491L203.751 515.573C203.668 515.829 203.499 516.05 203.273 516.197C203.048 516.345 202.778 516.411 202.51 516.385C202.241 516.358 201.99 516.241 201.797 516.052C201.605 515.863 201.483 515.614 201.451 515.346L198.57 489.993C198.551 489.824 198.568 489.654 198.621 489.493L217.737 430.826C217.817 430.581 217.974 430.369 218.186 430.222C218.397 430.075 218.65 430.001 218.907 430.011C219.164 430.021 219.411 430.115 219.61 430.277C219.81 430.44 219.95 430.664 220.011 430.914L220 430.913Z" fill="#080712"/>
<path d="M218.316 432.512L222.555 448.761L204.186 508.105L199.947 489.737L218.316 432.512Z" fill="white"/>
<path d="M125.769 520.822C126.475 522.941 199.242 520.116 199.949 519.409C200.565 518.524 201.086 517.577 201.503 516.583C202.167 515.17 202.775 513.757 202.775 513.757L199.949 490.881L127.889 488.324C127.889 488.324 126.089 507.71 125.72 516.583C125.595 517.994 125.611 519.414 125.769 520.822Z" fill="#090814"/>
<path opacity="0.1" d="M190.763 493.975L192.176 513.757H160.385V493.975H190.763Z" fill="black"/>
<path opacity="0.1" d="M149.789 500.334L149.979 500.296L149.079 508.811H131.42V500.334H149.789Z" fill="black"/>
<path opacity="0.1" d="M125.767 520.822C126.473 522.941 199.24 520.116 199.947 519.409C200.563 518.524 201.084 517.577 201.501 516.583H125.717C125.592 517.994 125.609 519.414 125.767 520.822Z" fill="black"/>
<path d="M102.438 324.821C107.653 324.821 111.88 320.594 111.88 315.379C111.88 310.164 107.653 305.937 102.438 305.937C97.2234 305.937 92.9961 310.164 92.9961 315.379C92.9961 320.594 97.2234 324.821 102.438 324.821Z" fill="#090814"/>
<path d="M99.6009 325.657C99.6009 325.657 89.9539 341.703 67.5229 347.709C45.0919 353.715 67.3398 387.424 67.3398 387.424C67.3398 387.424 59.2499 375.166 70.9189 362.185C82.5879 349.204 101.366 340.329 99.6009 325.657Z" fill="#090814"/>
<path opacity="0.1" d="M103.587 527.282C101.52 531.19 99.0932 535.249 98.6872 536.889C98.4112 538.002 95.3482 537.358 90.5282 535.542C80.8622 531.885 64.1092 523.508 48.4762 515.131C47.7556 514.749 47.072 514.3 46.4341 513.792C46.5431 513.131 46.6681 512.461 46.8021 511.784C50.6431 492.578 44.6091 446.576 45.5381 428.802L52.6601 426.425L66.8871 439.815V496.721C66.8871 496.721 103.709 516.805 106.219 518.479C107.495 519.332 105.729 523.223 103.587 527.282Z" fill="black"/>
<path d="M134.667 481.657L157.267 493.373C157.267 493.373 170.657 479.146 179.025 490.026C187.393 500.906 154.756 504.253 154.756 504.253C154.756 504.253 126.303 497.558 125.466 488.353C124.629 479.148 134.667 481.657 134.667 481.657Z" fill="#FFB9B9"/>
<path d="M97.0092 512.621L110.399 515.968C110.399 515.968 125.462 497.557 141.363 504.252C157.264 510.947 121.279 524.336 121.279 524.336C121.279 524.336 102.031 534.378 94.5002 526.01C86.9692 517.642 97.0092 512.621 97.0092 512.621Z" fill="#FFB9B9"/>
<path d="M126.3 402.156C127.137 402.993 136.342 409.688 136.342 409.688C136.342 409.688 138.853 441.488 135.505 448.188C132.157 454.888 129.647 454.883 132.158 458.23C134.669 461.577 138.016 459.067 134.669 464.925C131.322 470.783 127.974 469.946 130.485 472.457C132.996 474.968 132.159 475.804 132.159 475.804L142.201 484.173C142.201 484.173 136.04 493.986 128.241 493.264C120.442 492.542 113.748 454.883 113.748 454.883L126.3 402.156Z" fill="#6C63FF"/>
<path d="M52.6567 422.24L45.1247 424.751C45.1247 424.751 25.0407 498.394 48.4717 510.951C71.9027 523.508 97.8457 536.057 98.6827 532.709C99.5197 529.361 108.725 515.972 106.215 514.298C103.705 512.624 66.8827 492.54 66.8827 492.54V435.63L52.6567 422.24Z" fill="#6C63FF"/>
<path opacity="0.1" d="M63.9523 452.785L62.2793 492.954L106.632 513.876L65.6263 492.954L63.9523 452.785Z" fill="black"/>
<path d="M709.4 133.762V199.442C709.397 200.048 709.155 200.629 708.726 201.058C708.297 201.487 707.716 201.729 707.11 201.732H705.48V543.882C705.48 548.57 704.557 553.212 702.762 557.544C700.968 561.875 698.339 565.811 695.024 569.126C691.709 572.441 687.773 575.07 683.442 576.864C679.11 578.659 674.468 579.582 669.78 579.582H455.99C451.302 579.582 446.661 578.658 442.33 576.863C438 575.069 434.065 572.439 430.751 569.124C427.436 565.809 424.808 561.874 423.015 557.543C421.221 553.211 420.299 548.57 420.3 543.882V213.73H419.12C418.692 213.73 418.281 213.561 417.977 213.26C417.674 212.958 417.502 212.548 417.5 212.12V174.74C417.5 174.31 417.671 173.898 417.974 173.594C418.278 173.291 418.69 173.12 419.12 173.12H420.3V159.04H419.11C418.661 159.037 418.231 158.857 417.914 158.539C417.598 158.22 417.42 157.789 417.42 157.34V120.47C417.421 120.022 417.599 119.593 417.916 119.276C418.233 118.959 418.662 118.781 419.11 118.78H420.3V99.562H419.09C418.692 99.562 418.311 99.4039 418.029 99.1226C417.748 98.8413 417.59 98.4598 417.59 98.062V77.942C417.589 77.5429 417.746 77.1597 418.028 76.8766C418.309 76.5935 418.691 76.4335 419.09 76.432H420.3V35.692C420.3 26.2266 424.06 17.149 430.753 10.456C437.446 3.76288 446.524 0.00248353 455.989 0.00195313H669.78C679.246 0.00195275 688.325 3.76183 695.02 10.4547C701.715 17.1476 705.477 26.2255 705.48 35.692V131.472H707.11C707.716 131.475 708.297 131.717 708.726 132.146C709.155 132.574 709.397 133.155 709.4 133.762Z" fill="#090814"/>
<path d="M573.183 16.3069H538.444C537.04 16.3069 535.902 17.445 535.902 18.8489V21.8509C535.902 23.2548 537.04 24.3929 538.444 24.3929H573.183C574.587 24.3929 575.725 23.2548 575.725 21.8509V18.8489C575.725 17.445 574.587 16.3069 573.183 16.3069Z" fill="#E6E8EC"/>
<path d="M586.335 24.9379C588.868 24.9379 590.922 22.8842 590.922 20.3509C590.922 17.8176 588.868 15.7639 586.335 15.7639C583.802 15.7639 581.748 17.8176 581.748 20.3509C581.748 22.8842 583.802 24.9379 586.335 24.9379Z" fill="#E6E8EC"/>
<path d="M695.874 33.7439V546.497C695.868 559.217 685.121 569.526 671.867 569.526H454.952C448.634 569.557 442.549 567.144 437.968 562.793C435.755 560.693 433.992 558.165 432.785 555.363C431.578 552.561 430.952 549.544 430.945 546.493V33.7439C430.945 21.0189 441.694 10.7039 454.953 10.7049H487.418V14.7049C487.418 25.1819 496.268 33.6749 507.186 33.6749H617.503C628.42 33.6749 637.271 25.1819 637.271 14.7039V10.7039H671.871C685.132 10.7039 695.883 21.0169 695.878 33.7429L695.874 33.7439Z" fill="white"/>
<path d="M467.826 351.959H659.826C661.948 351.959 663.983 352.802 665.483 354.302C666.983 355.802 667.826 357.837 667.826 359.959V370.959C667.826 373.081 666.983 375.116 665.483 376.616C663.983 378.116 661.948 378.959 659.826 378.959H467.826C465.704 378.959 463.67 378.116 462.169 376.616C460.669 375.116 459.826 373.081 459.826 370.959V359.959C459.826 357.837 460.669 355.802 462.169 354.302C463.67 352.802 465.704 351.959 467.826 351.959Z" fill="#E6E6E6"/>
<path d="M467.826 399.959H659.826C661.948 399.959 663.983 400.802 665.483 402.302C666.983 403.802 667.826 405.837 667.826 407.959V418.959C667.826 421.081 666.983 423.116 665.483 424.616C663.983 426.116 661.948 426.959 659.826 426.959H467.826C465.704 426.959 463.67 426.116 462.169 424.616C460.669 423.116 459.826 421.081 459.826 418.959V407.959C459.826 405.837 460.669 403.802 462.169 402.302C463.67 400.802 465.704 399.959 467.826 399.959Z" fill="#E6E6E6"/>
<path d="M467.826 447.959H659.826C661.948 447.959 663.983 448.802 665.483 450.302C666.983 451.802 667.826 453.837 667.826 455.959V466.959C667.826 469.081 666.983 471.116 665.483 472.616C663.983 474.116 661.948 474.959 659.826 474.959H467.826C465.704 474.959 463.67 474.116 462.169 472.616C460.669 471.116 459.826 469.081 459.826 466.959V455.959C459.826 453.837 460.669 451.802 462.169 450.302C463.67 448.802 465.704 447.959 467.826 447.959Z" fill="#E6E6E6"/>
<path d="M644.826 110.959C655.872 110.959 664.826 102.005 664.826 90.959C664.826 79.9133 655.872 70.959 644.826 70.959C633.78 70.959 624.826 79.9133 624.826 90.959C624.826 102.005 633.78 110.959 644.826 110.959Z" fill="#6C63FF"/>
<path d="M467.41 157.959H659.41C661.532 157.959 663.567 158.802 665.067 160.302C666.567 161.802 667.41 163.837 667.41 165.959V287.959C667.41 290.081 666.567 292.116 665.067 293.616C663.567 295.116 661.532 295.959 659.41 295.959H467.41C465.288 295.959 463.254 295.116 461.753 293.616C460.253 292.116 459.41 290.081 459.41 287.959V165.959C459.41 163.837 460.253 161.802 461.753 160.302C463.254 158.802 465.288 157.959 467.41 157.959Z" fill="#E6E6E6"/>
<path d="M535.785 235.55C541.858 258 562.66 271.904 562.66 271.904C562.66 271.904 573.615 249.409 567.542 226.959C561.469 204.509 540.667 190.605 540.667 190.605C540.667 190.605 529.712 213.1 535.785 235.55Z" fill="#090814"/>
<path d="M544.709 230.725C561.374 246.948 563.409 271.885 563.409 271.885C563.409 271.885 538.425 270.521 521.761 254.298C505.097 238.075 503.061 213.138 503.061 213.138C503.061 213.138 528.045 214.503 544.709 230.725Z" fill="#6C63FF"/>
<path d="M591.034 235.55C584.961 258 564.159 271.904 564.159 271.904C564.159 271.904 553.204 249.409 559.277 226.959C565.35 204.509 586.15 190.605 586.15 190.605C586.15 190.605 597.107 213.1 591.034 235.55Z" fill="#090814"/>
<path d="M582.11 230.725C565.445 246.948 563.41 271.885 563.41 271.885C563.41 271.885 588.394 270.521 605.058 254.298C621.722 238.075 623.758 213.138 623.758 213.138C623.758 213.138 598.775 214.503 582.11 230.725Z" fill="#6C63FF"/>
<path d="M750 576H0V578.241H750V576Z" fill="#CCCCCC"/>
</svg>
