<svg width="302" height="302" viewBox="0 0 302 302" fill="none" xmlns="http://www.w3.org/2000/svg">
<path d="M52.3035 77.8195C52.5113 77.547 52.7928 77.3994 53.1387 77.3835C53.4726 77.3591 53.7775 77.4452 54.0501 77.6529C58.9311 82.0616 63.5863 85.9748 68.0216 89.3968C68.4657 89.7764 69.159 90.3201 70.1129 91.0313L72.2213 92.6418L72.0504 92.8818C71.9136 93.0737 71.8384 93.192 71.835 93.2348C71.8317 93.3093 71.695 93.5329 71.4215 93.9169L71.5824 93.8687L71.6135 94.0536L71.6784 93.9371L71.7706 93.7315C71.8587 93.6903 71.9973 93.5403 72.181 93.2823L72.4204 92.9464C72.4631 92.8864 72.5016 92.8641 72.5367 92.8846L72.6327 92.9529L72.4618 93.1929L72.5816 93.1517L72.5852 93.2989L72.7561 93.059C75.1414 94.8712 78.7093 97.5305 83.4556 101.043C84.1146 101.539 84.2138 102.098 83.7591 102.724L79.27 109.076C78.9469 109.511 78.5156 109.678 77.9794 109.568L75.4406 108.79L75.4782 108.763L75.4508 108.725L75.3789 108.8L62.6917 105.206C62.7623 104.872 62.7894 104.593 62.7626 104.371L62.6602 104.641L62.5232 104.706L62.4208 104.977L62.3799 105.111L56.3258 103.403L72.8091 116.14C73.3886 116.666 73.4561 117.225 73.0065 117.818L68.2915 124.208C68.0846 124.486 67.8253 124.64 67.5043 124.678C67.1867 124.705 66.8911 124.612 66.6135 124.405C65.0073 123.143 62.7684 121.291 59.8935 118.858L58.793 117.966C53.1307 113.245 49.1192 109.863 46.7585 107.819L37.5488 99.6484C36.9994 99.2072 36.9208 98.6765 37.3241 98.0595L40.5789 93.4145C41.2369 92.3639 42.1214 91.6872 43.2375 91.3836C44.3443 91.0868 45.5696 91.087 46.9125 91.379L46.9947 91.3652L60.117 95.0339L48.1649 85.0001C47.5847 84.5641 47.5352 84.0179 48.0156 83.3563L52.3035 77.8195ZM46.1048 100.028C46.0732 100.091 46.0845 100.19 46.1326 100.319L46.4817 100.134C46.3557 100.044 46.2281 100.007 46.1048 100.028ZM48.156 102.43L48.0086 102.307L47.8 102.574L47.9474 102.697L48.156 102.43ZM48.9635 101.829C48.9599 101.619 48.8929 101.472 48.7609 101.378L48.5558 101.666L48.7477 101.802C48.8633 101.799 48.9336 101.808 48.9635 101.829ZM50.5499 99.5772C50.2777 99.6229 50.0996 99.6634 50.0192 99.6875C50.1512 99.7815 50.2994 99.8464 50.4749 99.8856L50.5295 99.7074L50.5499 99.5772ZM50.0755 100.903C50.1593 100.805 50.201 100.645 50.205 100.417L50.1638 100.297L49.5278 101.164L49.3804 101.041L49.1069 101.425L49.3023 101.582L49.5758 101.198L49.5278 101.164L49.6717 101.14L49.9455 101.01C49.9815 101.035 50.0225 100.997 50.0755 100.903ZM50.6569 100.214L50.5847 100.036L50.2118 100.331L50.3558 100.434L50.6569 100.214ZM50.9271 99.9364C51.0451 99.7898 51.1022 99.627 51.0977 99.443C50.9129 99.5057 50.7777 99.5812 50.6939 99.6798C50.7129 99.7928 50.7523 99.839 50.8037 99.8304L50.9271 99.9364ZM49.8229 101.537C50.0532 101.557 50.196 101.432 50.2471 101.17C50.1033 101.226 49.9596 101.345 49.8229 101.537ZM51.816 104.097L52.008 104.233L52.2849 103.87L52.0929 103.733L51.816 104.097ZM53.9169 102.518L54.2623 102.059L54.0909 101.919L53.7455 102.378L53.9169 102.518ZM55.7428 102.824C55.6623 102.753 55.4851 102.799 55.2156 102.955C55.5205 103.073 55.7278 103.112 55.8459 103.061L55.7428 102.824ZM58.0503 99.3315C58.1969 99.4494 58.2766 99.547 58.2904 99.6291C58.3042 99.7113 58.2351 99.8655 58.0718 100.088L58.2636 100.098L58.3207 99.1804L58.0503 99.3315ZM55.4698 103.589L55.2024 103.38L54.9631 103.716L55.2305 103.924L55.4698 103.589ZM58.2643 100.605L57.9763 100.4L57.8019 100.62L58.0899 100.825L58.2643 100.605ZM54.831 104.942C55.0982 104.929 55.2522 104.871 55.2898 104.781C55.3325 104.689 55.2989 104.584 55.1935 104.459L54.831 104.942ZM58.8082 100.07C58.8082 100.07 58.7782 100.049 58.7122 100.002L58.5649 100.006L58.6747 100.156L58.9145 100.2L58.9316 100.176L58.8082 100.07ZM56.459 103.063C56.7627 102.859 56.9259 102.636 56.9376 102.391L56.459 103.063ZM56.0702 104.396L56.2416 104.536L56.5835 104.056L56.4121 103.916L56.0702 104.396ZM55.4457 106.212C55.3831 106.154 55.2598 106.111 55.0859 106.082L55.0105 106.011C54.8532 106.238 54.7798 106.43 54.792 106.597L55.032 106.767L55.4457 106.212ZM59.7128 100.425L59.853 100.254L59.661 100.117L59.5208 100.289L59.7128 100.425ZM59.9191 101.024L59.7956 100.918L59.5357 101.258L59.6592 101.364L59.9191 101.024ZM62.9826 96.8764L62.9481 96.671L62.8592 96.7704L62.921 96.8868L62.9826 96.8764ZM56.0324 107.064C56.0408 106.925 56.033 106.848 56.015 106.835C55.8865 106.73 55.6948 106.815 55.4434 107.079L55.7313 107.284L56.0324 107.064ZM56.5523 106.512L56.3604 106.375L56.121 106.711L56.313 106.848L56.5523 106.512ZM61.0461 101.194C60.8148 101.138 60.5972 101.037 60.4052 100.901C60.4104 100.931 60.4147 100.957 60.419 100.983C60.4242 101.014 60.4439 101.037 60.4739 101.058L60.5223 101.346L60.4608 101.483L60.5055 101.623C60.6288 101.602 60.7075 101.6 60.7349 101.606L60.8377 101.588L61.0461 101.194ZM59.9287 103.22C59.9287 103.22 59.9184 103.222 59.8876 103.227C59.8465 103.234 59.8259 103.237 59.8259 103.237C59.7943 103.301 59.7165 103.34 59.5932 103.361C59.5513 103.426 59.5908 103.504 59.7168 103.593L59.8128 103.662L60.0726 103.322L59.9287 103.22ZM56.79 107.55C56.7603 107.782 56.8033 107.943 56.9139 108.036L57.2798 107.573L56.79 107.55ZM65.8816 95.2699L66.0255 95.3724L66.0974 95.297L65.9534 95.1944L65.8816 95.2699ZM58.1006 106.675L58.464 106.952L58.6692 106.664L58.3058 106.387L58.1006 106.675ZM56.5279 108.882L56.8433 109.125L57.1374 108.738L56.822 108.495L56.5279 108.882ZM62.6366 102.237C62.8286 102.374 63.0271 102.298 63.2322 102.01L62.9443 101.805L62.6366 102.237ZM64.3922 101.118C64.002 101.31 63.7556 101.479 63.653 101.623C63.815 101.738 64.023 101.687 64.283 101.475C64.2744 101.423 64.2906 101.362 64.3376 101.296L64.3922 101.118ZM63.4733 103.068L63.3187 102.651L63.0655 102.904L63.2029 103.219L63.4733 103.068ZM63.3839 102.787L63.5586 102.821L63.8318 102.184L63.616 102.157L63.3839 102.787ZM67.1452 97.8884L67.0593 97.6282L66.8711 97.7654L66.9125 98.012L67.1452 97.8884ZM64.848 101.316L64.6184 101.207L64.4408 101.659L64.6224 101.734L64.848 101.316ZM58.0753 111.052C58.2147 110.875 58.3001 110.692 58.3212 110.503L57.9649 110.394C57.9122 110.741 57.9493 110.962 58.0753 111.052ZM63.3678 103.572C63.1521 103.608 62.9929 103.666 62.8885 103.737C62.9657 103.851 62.9514 104.017 62.8446 104.23C62.884 104.213 62.9293 104.168 62.9712 104.103L63.1081 104.038L63.3648 103.931L63.3954 103.736L63.3678 103.572ZM58.8 109.958L58.9715 110.098L59.1079 109.653L58.8681 109.609L58.8 109.958ZM59.8686 109.906C59.4895 110.07 59.2969 110.149 59.2969 110.149L59.1189 110.222L58.6605 110.637L59.1608 110.848L59.8686 109.906ZM65.067 103.878C64.8468 103.762 64.6773 103.79 64.5533 103.964C64.5705 104.004 64.6185 104.038 64.6973 104.067C64.6973 104.067 64.7076 104.065 64.7384 104.06C64.7795 104.053 64.8 104.049 64.8 104.049L65.067 103.878ZM68.4792 99.1642C68.6676 99.2171 68.8063 99.2255 68.8833 99.1809C68.9106 99.0918 68.8455 99.0182 68.6981 98.9585L68.5613 99.1504L68.4792 99.1642ZM65.3926 104.056L65.4267 104.008C65.4481 103.978 65.4403 103.9 65.4093 103.778L65.4435 103.73L65.4297 103.648L65.0808 103.96L65.3447 104.148L65.3926 104.056ZM66.993 102.139L66.5716 102.02L66.5136 102.177L66.8015 102.382L66.993 102.139ZM60.9205 110.257L60.6805 110.086L60.3146 110.549L60.5546 110.72L60.9205 110.257ZM66.1873 104.133L66.4542 103.962L66.3511 103.726L66.1322 103.931L66.1873 104.133ZM61.2157 110.757L61.5311 110.999L61.7362 110.711L61.4208 110.469L61.2157 110.757ZM66.0444 104.918C65.982 104.986 65.9718 105.052 66.0138 105.113C66.049 105.165 66.0987 105.178 66.168 105.151L66.3457 104.825L66.0444 104.918ZM67.9363 103.227C67.9484 103.299 67.9279 103.366 67.8852 103.426L67.8202 103.542C67.8485 103.553 68.0018 103.554 68.286 103.548L68.6697 103.569C68.6934 103.396 68.7001 103.247 68.6794 103.123C68.681 103.07 68.6878 102.985 68.6996 102.866C68.7072 102.754 68.7045 102.644 68.6855 102.531L68.5283 102.853L68.4394 102.952L68.419 103.082L68.4192 103.209C68.2959 103.23 68.2171 103.233 68.1863 103.206C68.1229 103.174 68.0544 103.175 67.9739 103.199L67.9363 103.227ZM67.2495 104.546L67.0441 104.581L66.8458 104.91L67.1096 104.971L67.2495 104.546ZM62.0767 111.858C61.94 112.05 61.8887 112.154 61.9161 112.16C61.9179 112.234 61.9497 112.297 62.0123 112.355L62.3923 112.228L62.2207 111.961L62.0767 111.858ZM69.1928 102.91L69.1417 103.109L69.1005 102.989L68.8064 103.377C68.7979 103.42 68.762 103.49 68.6937 103.586C68.8564 103.643 68.9763 103.633 69.0464 103.547L69.1902 103.523C69.1729 103.357 69.1693 103.273 69.1693 103.273L69.4976 102.838L69.658 102.41L69.4628 102.379L69.2612 102.814L69.1928 102.91ZM70.2471 102.395L70.3084 102.131L69.8973 102.074L69.8429 102.379L70.2471 102.395ZM67.4533 105.885C67.5525 105.816 67.6551 105.672 67.761 105.453C67.5769 105.458 67.4186 105.553 67.2818 105.745L67.4533 105.885ZM64.308 110.427L64.596 110.633L64.8353 110.297L64.5473 110.091L64.308 110.427ZM69.6701 103.865C69.9491 103.766 70.1484 103.568 70.2688 103.279L70.1248 103.176C69.9937 103.087 69.8456 103.118 69.6762 103.273L69.4782 103.728L69.6701 103.865ZM68.7915 105.175L68.5516 105.004L68.3943 105.199L68.6342 105.37L68.7915 105.175ZM69.609 104.256C69.5225 104.244 69.4429 104.273 69.3693 104.338C69.294 104.393 69.2188 104.448 69.1435 104.503L68.9553 104.64L69.4349 104.729L69.609 104.256ZM72.2913 101.988C72.5069 101.857 72.6207 101.78 72.6335 101.762C72.6437 101.665 72.611 101.597 72.5374 101.567C72.4586 101.538 72.3901 101.539 72.325 101.56L72.2913 101.988ZM71.6434 104.294L71.7288 104.048L70.8723 103.853L70.7595 104.063L71.6434 104.294ZM69.3816 105.921L69.625 106.112L69.8643 105.776L69.6209 105.585L69.3816 105.921ZM70.2621 106.132C70.1645 106.148 70.0642 106.054 69.9603 105.845L69.7589 106.406C69.8198 106.454 69.8985 106.42 69.9951 106.303C70.026 106.33 70.0696 106.307 70.1321 106.238L70.2621 106.132ZM73.3379 103.566C73.4484 103.563 73.5271 103.529 73.5741 103.463L73.7516 103.011C73.2818 103.232 72.9677 103.311 72.8203 103.252L72.6009 103.077C72.6009 103.077 72.5992 103.067 72.594 103.036C72.5897 103.01 72.5871 102.995 72.5871 102.995L72.5049 103.009L72.3958 103.365C72.4284 103.402 72.3883 103.509 72.2797 103.68L72.3073 103.845L72.3247 104.074L72.5881 103.755L72.8446 103.522C73.0288 103.549 73.1949 103.564 73.3379 103.566ZM71.7299 104.935C71.6648 104.893 71.5073 104.93 71.2642 105.055L71.8364 105.191L71.7299 104.935ZM73.1068 104.957C73.2254 104.657 73.2851 104.478 73.291 104.419L73.2976 104.207L73.2905 104.039L73.2938 103.933L72.8519 103.817L72.7151 104.009L72.4447 104.16C72.5082 104.223 72.6315 104.266 72.8045 104.289C72.8045 104.289 72.8148 104.288 72.8456 104.283C72.8713 104.278 72.8867 104.276 72.8867 104.276L72.9827 104.344C73.0606 104.305 73.1085 104.339 73.1267 104.447C73.1575 104.473 73.1525 104.537 73.1166 104.638C73.0919 104.743 73.0886 104.849 73.1068 104.957ZM64.9844 114.454L65.3203 114.694L65.5254 114.406L65.1895 114.166L64.9844 114.454ZM72.4338 106.359L72.6665 106.235L72.8873 104.783C72.8379 104.991 72.7329 105.183 72.5832 105.362C72.6022 105.475 72.551 105.61 72.4399 105.766C72.3067 106.074 72.2419 106.285 72.2523 106.41L72.3516 106.372L72.3858 106.324L72.4338 106.359ZM74.6584 102.373C74.805 102.491 74.8839 102.583 74.8951 102.65C74.9072 102.722 74.8252 102.862 74.649 103.071L74.9094 103.112L74.8979 102.163L74.6584 102.373ZM66.1423 114.682C66.2173 114.374 66.2444 114.158 66.2237 114.035C66.0842 114.116 65.9431 114.251 65.8063 114.443L66.1423 114.682ZM75.2565 104.047L75.4549 103.844L75.2182 103.567L75.0473 103.807L75.2565 104.047ZM67.2039 114.589L67.4953 114.814L67.8407 114.355L67.5493 114.129L67.2039 114.589ZM74.5555 104.904L74.6177 105.4L74.7101 105.321C74.7315 105.291 74.7563 105.282 74.7888 105.287C74.8145 105.283 74.8428 105.294 74.8779 105.314L75.0896 104.814L74.5555 104.904ZM75.2537 104.533C75.2985 104.737 75.3687 104.778 75.4627 104.646C75.5311 104.55 75.561 104.476 75.5515 104.42L75.4693 104.433C75.4223 104.499 75.3487 104.533 75.2537 104.533ZM76.0172 104.299C76.048 104.326 76.0207 104.383 75.942 104.481L75.9078 104.529L76.059 104.926L76.107 104.96L76.1412 104.912L75.99 104.515C76.0515 104.378 76.1464 104.251 76.2841 104.127L76.2532 104.069L76.0172 104.299ZM76.684 103.49C76.6765 103.634 76.6946 103.773 76.7325 103.904L76.6983 103.952L76.7805 103.938C76.7118 103.781 76.6945 103.647 76.732 103.524L76.7662 103.476L76.684 103.49ZM75.2228 107.242C75.2347 107.156 75.2166 107.048 75.1676 106.913L74.8977 107.445L74.8499 107.537L74.744 107.787C74.9426 107.712 75.0514 107.794 75.08 108.027C75.2535 107.802 75.3004 107.641 75.2301 107.537C75.2179 107.401 75.2118 107.302 75.2023 107.246C75.2039 107.192 75.2142 107.191 75.2228 107.242Z" fill="#BE2726"/>
<path d="M108.426 79.8166C108.623 80.0504 108.712 80.3306 108.688 80.6582C108.672 80.9736 108.532 81.2483 108.267 81.4773L101.403 87.1072C100.859 87.5465 100.335 87.5161 99.819 87.018L94.8213 81.8598L89.0812 88.8714L91.5032 93.848C91.7604 94.4096 91.653 94.8901 91.1751 95.2855L84.3277 100.658C84.0358 100.913 83.7118 100.994 83.3557 100.901C82.9902 100.815 82.6975 100.578 82.4837 100.193C80.9124 96.7281 79.0299 92.2929 76.8318 86.8937C75.6609 84.0484 74.4557 80.7011 73.2231 76.861C72.0895 73.2992 70.6877 68.6852 69.0178 63.0191C68.9423 62.6676 69.0295 62.3073 69.2833 61.9321L70.0579 60.963C70.834 60.0308 71.443 59.3412 71.8788 58.89C72.0975 58.6114 72.5274 58.2143 73.1634 57.6998C73.7407 57.212 74.1708 56.8732 74.4577 56.6773C76.0254 55.6149 78.0479 55.6973 80.5219 56.9358C81.3887 57.4433 82.566 58.2271 84.0497 59.2934C85.7869 60.6148 87.5163 61.98 89.2347 63.4002L108.262 79.6139L108.426 79.8166ZM70.8083 62.9643L70.5878 62.6872L70.4018 62.8274L70.6224 63.1045L70.8083 62.9643ZM77.2491 59.6367L76.9725 59.2852L76.8404 59.3731L77.1171 59.7246L77.2491 59.6367ZM77.5276 60.687C77.482 60.5259 77.4146 60.39 77.3253 60.2794C77.1793 60.4069 77.0867 60.4505 77.0536 60.4142L77.2947 60.6875L77.5276 60.687ZM72.1249 64.8187L72.6184 65.4268C72.509 65.2934 72.4381 65.0523 72.4004 64.7044L72.2516 64.8166L72.1249 64.8187ZM78.2116 60.0312C78.2375 59.9417 78.2597 59.8899 78.2876 59.8689L77.7388 60.2243L77.8791 60.4103C77.9485 60.4134 78.0124 60.444 78.0656 60.503L78.2311 60.3665C78.1928 60.3312 78.1884 60.2208 78.2116 60.0312ZM78.0117 60.5553L77.9314 60.4642L77.7167 60.3343L77.8047 60.4664L78.0117 60.5553ZM79.0447 60.0682C78.935 60.1626 78.9178 60.3564 79.0033 60.6478L79.171 60.6381L79.7586 60.1484L79.868 59.9375C79.6458 59.9679 79.4971 59.9371 79.428 59.8492L79.3864 59.6238C79.243 59.8515 79.1274 60 79.0447 60.0682ZM79.9238 61.389C79.8006 61.4964 79.7939 61.6036 79.8985 61.7114C79.9983 61.7354 80.0947 61.7123 80.1816 61.638C80.2207 61.6202 80.3212 61.5911 80.4851 61.5609C80.4909 61.4486 80.4819 61.3708 80.4641 61.3317L80.4376 61.1883C80.2174 61.2289 80.0447 61.2978 79.9238 61.389ZM76.5747 64.8242L76.5035 64.6679L76.4663 64.6959L76.4555 64.8674L76.5747 64.8242ZM77.4525 64.8742L77.6719 64.6854C77.7259 64.6914 77.766 64.6787 77.791 64.6423C77.8091 64.5966 77.83 64.5662 77.8579 64.5452C77.7587 64.4099 77.6556 64.3389 77.5424 64.328C77.5173 64.3644 77.4974 64.3999 77.4793 64.4456C77.4715 64.4894 77.4567 64.5239 77.433 64.5388L77.2303 64.7033L77.4525 64.8742ZM81.8769 62.2151C81.8947 62.2542 81.8614 62.361 81.7659 62.5322C81.7171 62.5835 81.7303 62.6552 81.8037 62.737C81.8215 62.7761 81.8844 62.8016 81.9865 62.8093L82.2636 62.5887C82.3437 62.4203 82.3649 62.3052 82.326 62.2382C82.1966 62.082 82.0466 62.0726 81.8769 62.2151ZM73.3585 72.1965C73.3415 72.1043 73.3234 72.15 73.2992 72.3346C73.2629 72.5108 73.2552 72.6128 73.2702 72.6365C73.3473 72.7388 73.4719 72.8112 73.6509 72.8629C73.8196 72.9165 73.9185 72.9354 73.9566 72.9124C73.9083 72.7942 73.8204 72.6621 73.6929 72.5162C73.5475 72.3312 73.4378 72.2243 73.3585 72.1965ZM77.0525 70.2865C77.0525 70.2865 77.0516 70.2814 77.0487 70.266C77.044 70.2404 77.0607 70.2162 77.0988 70.1932C77.2296 70.1267 77.2746 70.0549 77.2287 69.9786L76.929 70.0763C76.9062 70.0964 76.9189 70.1364 76.9721 70.1954L77.0525 70.2865ZM74.8298 74.086L75.0158 73.9458L74.5746 73.3916L74.4204 73.5895L74.8298 74.086ZM79.877 69.4054C79.6442 69.6073 79.5484 69.8633 79.5958 70.1776C79.8384 70.3447 80.0091 70.4085 80.1161 70.357C80.2343 70.3087 80.3448 70.1612 80.4578 69.9127L80.289 69.4566L80.1957 69.4102C80.1574 69.3749 80.0833 69.3462 79.9681 69.3251L79.877 69.4054ZM84.9245 65.5298L85.235 65.2607L85.1508 65.1491L84.8403 65.4182L84.9245 65.5298ZM86.0191 65.8364C85.8915 65.6904 85.7383 65.6922 85.5532 65.8376L85.6282 66.0144L85.742 66.057L86.0191 65.8364ZM86.1406 74.076C85.23 73.2165 84.5338 72.5717 84.0487 72.1527C82.7593 71.077 81.7813 70.2829 81.1097 69.7713L84.8951 78.924L88.2195 76.0441L86.1406 74.076ZM80.5805 71.267L80.6997 71.2239L80.5551 70.7845L80.4284 70.7867L80.5805 71.267ZM84.9988 67.6558L85.0414 67.542L84.8866 67.507L84.7902 67.6731L84.9988 67.6558ZM81.4731 74.958C81.5152 74.8126 81.5291 74.6299 81.5221 74.4194C81.508 74.1995 81.4829 74.0347 81.4519 73.9239L81.242 73.4754L80.9312 72.1345L80.6109 72.2359L80.528 72.5902C80.5123 72.8208 80.493 72.9462 80.4693 72.9611C80.7929 73.6535 80.9452 73.9909 80.9321 73.9774C80.9953 74.2623 81.0134 74.4179 80.9743 74.4357C81.0304 74.5101 81.039 74.6144 81.0105 74.7468C80.9874 74.8516 81.0181 74.989 81.1065 75.1528L81.6352 76.4111L81.954 77.2208C82.0867 77.5671 82.151 77.9154 82.1467 78.2657C82.143 78.6477 82.1848 78.9313 82.2607 79.1133C82.3347 79.285 82.3853 79.3869 82.4236 79.4222C82.4538 79.5861 82.532 79.7517 82.6615 79.9079C82.7687 80.1159 82.85 80.4134 82.9097 80.7943C82.9957 81.1174 83.0658 81.3534 83.1239 81.4962C83.3005 81.7073 83.4167 81.7918 83.4674 81.7506C83.5884 81.7177 83.6661 81.6505 83.7073 81.5581C83.7073 81.5581 83.7145 81.4826 83.7272 81.3214C83.6135 80.9346 83.4938 80.6018 83.3743 80.3272C83.1737 80.0147 83.0857 79.6814 83.1072 79.3385C83.0157 79.2441 82.9923 79.0313 83.0311 78.6958L82.7835 78.0424C82.7845 77.9045 82.684 77.5893 82.4829 77.1021C82.2748 76.6056 82.0918 76.0726 81.9348 75.5084L81.4731 74.958ZM86.8743 68.7504C86.8743 68.7504 86.8724 68.7402 86.8667 68.7094C86.8723 68.6819 86.8797 68.6647 86.8797 68.6647L86.5244 68.9209L86.6813 69.0826L86.9547 68.8415L86.8743 68.7504ZM88.1294 68.4342L87.7925 68.5599L87.8523 68.6548L88.206 68.5048L88.1294 68.4342ZM86.1295 70.4555C86.219 70.4813 86.2875 70.4793 86.3382 70.4382C86.3972 70.3849 86.4031 70.3308 86.3489 70.2667L86.1295 70.4555ZM89.8125 70.0939C89.9594 69.9715 89.9787 69.8462 89.8712 69.723L89.8125 70.0939ZM87.0164 72.6222C86.9781 72.5869 86.9091 72.5573 86.8093 72.5333L86.5991 72.6568L86.7393 72.8428L87.0164 72.6222ZM88.9912 71.7284C88.782 71.5127 88.4857 71.5144 88.1005 71.7232C88.0337 71.8202 88.0633 71.9525 88.1928 72.1086L88.4699 71.8881C88.3828 72.1054 88.4516 72.2198 88.6813 72.2304L89.0867 71.9014L88.954 71.7564L88.9912 71.7284ZM89.9458 70.4719C90.1308 70.3265 90.2028 70.2285 90.1668 70.1769C90.1543 70.1951 90.1296 70.2049 90.0886 70.2125C90.056 70.2079 90.0317 70.1912 90.0158 70.1624L89.9247 70.2427C89.8484 70.2886 89.8365 70.3385 89.8897 70.3975L89.9458 70.4719ZM89.3787 70.9578C89.4785 70.9818 89.553 70.9839 89.5911 70.961L89.5701 70.7318C89.55 70.7091 89.45 70.7699 89.2649 70.9152L89.3787 70.9578ZM90.3589 70.9889C90.5484 70.9539 90.6676 70.9107 90.7164 70.8594C90.8735 70.7351 90.9988 70.5531 91.084 70.3255C90.8389 70.3177 90.6657 70.355 90.5551 70.4442L90.1664 70.749L90.3589 70.9889ZM89.6044 72.5262C89.7225 72.4197 89.8099 72.3771 89.8556 72.3951L90.1327 72.1745L89.944 71.9551L89.7838 72.0059C89.7103 72.0088 89.6446 72.0262 89.5827 72.0641C89.4929 72.2661 89.4998 72.4184 89.6044 72.5262ZM87.6756 73.8988L87.7354 73.9937L88.1036 73.6928L88.0437 73.5979L87.6756 73.8988ZM91.8249 70.782C91.6924 70.6953 91.5987 70.6755 91.5397 70.7287L91.0971 71.0857C91.0278 71.3421 90.9668 71.5282 90.9047 71.6508C90.851 71.7614 90.8376 71.8327 90.8605 71.8708C90.9652 71.9786 91.3234 72.1403 91.9444 72.3488L92.5897 71.8273L92.7476 71.6499C92.5284 71.5526 92.3537 71.5531 92.2203 71.6624C92.1125 71.767 91.8913 71.8025 91.5609 71.7628C91.7126 71.523 91.7854 71.3719 91.7722 71.3002C91.7322 71.1698 91.7481 70.9974 91.8249 70.782ZM80.701 79.8458L80.9351 80.3111C81.0454 80.4496 81.1611 80.5024 81.284 80.4798C81.2546 80.2627 81.2048 80.1077 81.1356 80.0199L80.8832 79.6851L80.701 79.8458ZM89.8676 72.6895L89.7538 72.6469L89.4395 72.8956L89.5797 73.0816L89.9599 73.075L89.9113 73.0416L89.9706 72.9035L90.0822 72.8194L89.8676 72.6895ZM90.6105 72.4678C90.6105 72.4678 90.5942 72.4655 90.5657 72.4548C90.5331 72.4502 90.521 72.4419 90.521 72.4419L90.4299 72.5222L90.9622 72.9961C90.9528 72.8018 90.8945 72.6007 90.7873 72.3928L90.6105 72.4678ZM89.6947 73.59C89.6156 73.6205 89.5402 73.6714 89.4677 73.7378C89.4064 73.8073 89.3628 73.8577 89.3265 73.8909L89.664 73.9981C89.7058 73.9375 89.7899 73.8478 89.9131 73.7404L90.2554 73.5289C90.3144 73.4757 90.3636 73.3977 90.402 73.29C90.4334 73.173 90.4276 73.0841 90.3734 73.0199L89.6947 73.59ZM89.6614 74.4435L89.7197 74.6446L89.8631 74.6181L89.7358 74.3874L89.6614 74.4435ZM90.8078 74.571C90.8258 74.5253 90.8094 74.4648 90.7533 74.3904L90.4519 74.5943L90.4169 74.749L90.4601 74.8682L90.8509 74.6902C90.7977 74.6311 90.7799 74.5921 90.8078 74.571ZM90.0919 75.1691C90.2025 75.0799 90.2024 75.0216 90.1026 74.9977L90.0919 75.1691ZM93.0413 73.5871C93.0213 73.5643 92.9327 73.5436 92.7766 73.53L92.6559 73.6794C92.6177 73.7023 92.6061 73.7256 92.6262 73.7484L92.9837 73.6189L93.0413 73.5871ZM93.1537 74.5409C93.0545 74.5486 92.9533 74.4878 92.8458 74.3646C92.6877 74.2826 92.5855 74.2167 92.5341 74.1679C92.1196 74.2178 91.8083 74.3388 91.6052 74.5299C91.6594 74.594 91.732 74.5859 91.8343 74.5088C91.9753 74.4404 92.1953 74.4846 92.4943 74.6413L92.7111 74.8979L93.1537 74.5409ZM90.3848 76.0684L90.5251 76.2544L90.6738 76.1422L90.5336 75.9562L90.3848 76.0684ZM95.0955 73.1235L95.0637 73.0658L94.7548 73.2287L94.8389 73.3403L95.0955 73.1235ZM92.0077 76.0233L92.1937 75.8831L92.005 75.6637L91.819 75.8039L92.0077 76.0233ZM91.155 77.028L91.0951 76.9331L90.9668 77.0415L91.0267 77.1364L91.155 77.028ZM89.5545 78.573L89.6182 78.6884L89.8376 78.4997L89.7739 78.3843L89.5545 78.573ZM91.3149 78.3543C91.3282 78.283 91.2898 78.1895 91.2005 78.0788C91.1364 78.133 91.0556 78.2697 90.9574 78.4838L91.1601 78.3193L91.3149 78.3543ZM92.9014 77.1931C92.8705 77.4848 92.8541 77.6255 92.8541 77.6255C93.1054 77.5527 93.2967 77.4698 93.4217 77.3725C93.5001 77.0509 93.5043 76.8436 93.4351 76.7557C93.4122 76.7176 93.3175 76.6927 93.1461 76.6819C93.0466 76.7744 92.98 76.7867 92.9412 76.7197L92.9014 77.1931ZM94.9002 77.693L95.1196 77.5043L95.0598 77.4094L94.8404 77.5981L94.9002 77.693ZM94.2922 78.1865C94.4174 78.3488 94.6118 78.3977 94.8702 78.3341L94.5692 77.9659L94.2922 78.1865ZM96.3483 77.0446C96.4025 77.1088 96.5028 77.1644 96.6562 77.2209C96.818 77.2652 96.9595 77.2285 97.0827 77.121C97.2398 76.9967 97.323 76.9019 97.3279 76.8428C97.3279 76.8428 97.3967 76.7559 97.5322 76.5721C97.4837 76.5386 97.4222 76.55 97.3478 76.6061L97.0702 76.5937C96.9985 76.6069 96.8663 76.4936 96.6668 76.2444C96.7463 76.3886 96.7252 76.5038 96.6043 76.5949L96.3483 77.0446ZM86.2029 85.4407L86.3916 85.6601L86.8881 85.2508L86.6994 85.0314L86.2029 85.4407ZM86.3256 86.7951C86.1703 86.7284 86.0681 86.6625 86.0139 86.5983C85.5762 86.695 85.33 86.7669 85.271 86.8201C85.125 86.9477 85.0504 87.0885 85.0521 87.2418C85.0498 87.4011 85.0789 87.5017 85.1293 87.5453C85.2013 87.6486 85.3375 87.6976 85.5397 87.7027C85.7521 87.7059 85.9318 87.6462 86.0777 87.5187C86.1367 87.4654 86.1702 87.4169 86.178 87.3731L86.6168 86.9956L86.3256 86.7951ZM93.5868 79.9902L93.7437 80.1519L93.8925 80.0397L93.7356 79.878L93.5868 79.9902ZM98.8293 75.9091L98.7695 75.8142L98.5835 75.9545L98.6434 76.0493L98.8293 75.9091ZM94.2402 79.7426C94.384 79.6896 94.4851 79.6921 94.5384 79.7511L94.9976 79.3698L94.8855 79.221L94.2402 79.7426ZM92.0462 81.6302L91.9497 81.7962L92.0635 81.8388L92.1842 81.6894L92.0462 81.6302ZM104.734 81.6204C104.832 81.5493 104.885 81.4602 104.897 81.3572L103.812 80.4134L102.723 79.449L102.373 79.3866L102.089 79.227C102.016 79.1452 102.006 78.9775 102.06 78.724C101.661 78.7977 101.432 78.7656 101.363 78.6195C101.279 78.3966 101.209 78.2454 101.153 78.171C101.006 78.0023 100.788 77.857 100.502 77.7403C100.28 77.6859 100.14 77.6164 100.084 77.542C99.9894 77.4323 99.9929 77.3363 100.092 77.2438C100.131 77.226 100.105 77.1674 100.017 77.067C99.9211 76.9471 99.7513 76.8301 99.5078 76.7161L99.3974 77.2661L99.2924 77.7304L99.0632 77.7514L98.6857 77.3126C98.5716 77.1536 98.6471 76.9596 98.919 76.74L99.2134 76.728L98.9125 76.3599C98.7588 76.3882 98.5936 76.4399 98.4116 76.5158C98.2245 76.5927 98.104 76.6572 98.045 76.7105C97.8837 76.8409 97.7459 77.0411 97.6273 77.3172C97.5087 77.5933 97.4934 77.7973 97.5897 77.9173C97.6075 77.9564 97.6746 77.9758 97.7892 77.9652L98.0873 77.9738C98.0593 78.1378 98.1467 78.2382 98.3565 78.2843L98.6471 78.2519C98.6708 78.2369 98.7076 78.2354 98.7533 78.2535C98.7999 78.2766 98.8223 78.2831 98.8223 78.2831C98.763 78.4211 98.6785 78.5374 98.5679 78.6266C98.2959 78.8463 98.2256 79.0393 98.355 79.1955C98.447 79.4645 98.4921 79.5939 98.4921 79.5939C98.5436 79.4997 98.617 79.4385 98.7115 79.4052C98.8172 79.3751 98.882 79.4108 98.9018 79.5183C98.9378 79.57 98.9259 79.6198 98.8668 79.6731C98.8287 79.696 98.8232 79.7235 98.8615 79.7588C98.9157 79.823 98.9475 79.8807 98.9569 79.9319L98.9818 80.1815L99.3108 80.5869C99.383 80.6053 99.6065 80.5535 99.9831 80.4417C100.37 80.328 100.48 80.4349 100.317 80.7614C100.438 80.7284 100.631 80.5975 100.903 80.3779C100.986 80.3097 101.05 80.2238 101.091 80.1314L101.348 79.9146L101.869 80.5599L101.832 80.588L101.88 80.6214L101.827 80.6737L102.084 80.6898C102.24 80.7034 102.32 80.7097 102.32 80.7097C102.375 80.7739 102.428 80.7747 102.492 80.7204C102.492 80.7204 102.569 80.738 102.732 80.7608L103.119 81.1344C103.306 81.2271 103.506 81.2536 103.727 81.213C103.783 81.2874 103.806 81.3572 103.805 81.4103L103.886 81.5014C103.94 81.5656 104.081 81.6137 104.317 81.655C104.545 81.687 104.685 81.6717 104.734 81.6204ZM83.1441 90.2206C83.1577 90.0645 83.0589 90.0457 82.8589 90.1673L82.9188 90.2622L83.1441 90.2206ZM85.6948 89.3477C85.7005 89.2354 85.6198 89.1708 85.4483 89.1601C85.4537 89.2756 85.4931 89.3743 85.5665 89.4561C85.5843 89.4951 85.6201 89.4885 85.6689 89.4372C85.708 89.4194 85.7126 89.3867 85.6948 89.3477ZM98.1239 79.8948C98.163 79.877 98.1526 79.8207 98.0937 79.7309L97.7589 79.9834C97.8178 80.0731 97.8664 80.1065 97.9045 80.0836C97.9045 80.0836 97.9972 80.0983 98.1859 80.1164C98.1477 80.0811 98.1369 80.0513 98.1466 80.0178C98.1493 79.9749 98.1417 79.9339 98.1239 79.8948ZM85.2724 91.078L85.3317 90.9399L85.1429 90.7205C85.0668 90.6233 84.9387 90.647 84.7537 90.7923L84.6739 90.9341C84.6739 90.9341 84.6767 90.9495 84.6815 90.9751C84.6945 90.9886 84.7057 90.9918 84.7057 90.9918L84.846 91.1778L85.2724 91.078ZM96.0096 81.6406L96.1703 81.8228L96.4809 81.5537L96.3201 81.3715L96.0096 81.6406ZM97.5926 81.2639C97.5192 81.1821 97.4358 81.1604 97.3483 81.2031C97.272 81.2489 97.2143 81.2807 97.1753 81.2985L97.3155 81.4845L97.5926 81.2639ZM85.6845 91.9341C85.6645 91.9113 85.662 91.8694 85.6824 91.8074C85.7111 91.7332 85.7212 91.6731 85.7136 91.6321L85.9605 91.2477L85.824 91.0822C85.7066 91.0773 85.6391 91.0845 85.6153 91.0995L85.3043 91.1356C85.4114 91.4866 85.2808 91.8126 84.9136 92.1186C84.9697 92.193 85.0732 92.2375 85.2344 92.2501C85.4059 92.2609 85.5381 92.2312 85.6404 92.1541C85.6487 92.1419 85.6662 92.0646 85.6845 91.9341ZM97.3113 82.0361C97.1633 82.0952 97.0618 82.1192 97.0077 82.1133L97.3141 82.3957L97.6725 81.9271L97.3113 82.0361ZM88.2471 91.3555C88.2889 91.2949 88.2686 91.2139 88.1813 91.1135L88.0265 91.0784C87.9502 91.1243 87.9252 91.1607 87.9635 91.196L87.8929 91.2726L87.722 91.4947L88.0573 91.4753L88.2471 91.3555ZM86.5523 93.1934C86.5398 93.2116 86.4793 93.2281 86.3717 93.2479C86.2725 93.2556 86.1836 93.2614 86.1016 93.2765C85.9431 93.4223 85.9178 93.5435 86.0224 93.6513C86.0663 93.6591 86.1574 93.5787 86.2957 93.4102L86.5523 93.1934ZM87.2505 92.9587C87.2696 92.7751 87.2927 92.6702 87.3206 92.6492C87.2243 92.5293 87.104 92.5091 86.9496 92.5905C86.8337 92.8237 86.794 92.9529 86.8294 92.9728L87.2505 92.9587ZM99.4304 82.9587C99.3846 82.8824 99.2494 82.8385 99.0239 82.8218L98.9129 83.1389L98.934 83.368L99.4304 82.9587ZM101.615 84.6954C101.615 84.6954 101.619 84.6894 101.632 84.6712C101.637 84.6437 101.645 84.6264 101.645 84.6264C101.412 84.5157 101.243 84.3987 101.135 84.2755L100.692 84.6326C100.846 84.7207 101.016 84.7794 101.192 84.8158C101.367 84.8419 101.525 84.8391 101.679 84.8108L101.615 84.6954Z" fill="#BE2726"/>
<path d="M124.804 43.3551C125.216 44.0676 125.57 44.7782 125.861 45.493C126.72 47.571 127.112 49.6978 127.047 51.8668C126.969 52.9633 126.818 53.9602 126.59 54.8633C126.626 54.6473 126.591 54.4103 126.482 54.1422C126.367 53.8646 126.267 53.6582 126.177 53.5137C126.075 53.3922 125.975 53.2175 125.888 52.9883C125.821 52.8193 125.816 52.7199 125.886 52.6937L125.845 52.6998C125.732 52.4376 125.638 52.2674 125.559 52.195C125.467 51.9717 125.449 51.7479 125.501 51.5295C125.282 51.5781 125.182 51.5088 125.196 51.3224C125.13 51.1637 125.076 51.0823 125.032 51.073L126.59 54.8633C126.234 56.4229 125.55 57.8366 124.55 59.108L124.492 59.1379C123.15 60.8027 121.529 62.3568 119.629 63.8052C119.097 64.2956 118.332 64.8525 117.33 65.4765L116.893 65.7947L116.465 66.0274L116.406 66.0572C116.378 65.9771 116.333 65.9524 116.267 65.9727C116.078 66.0432 116.007 66.1328 116.054 66.2364C116.06 66.2776 116.084 66.2951 116.125 66.2889L114.555 67.1981L118.236 77.0112C118.537 77.7244 118.324 78.2356 117.601 78.5388L110.917 81.3091C110.599 81.4409 110.299 81.4436 110.012 81.3181C109.728 81.1815 109.515 80.9502 109.383 80.6329L107.893 76.4532L108.053 76.5346C108.141 76.453 108.266 76.2658 108.432 75.9723L108.238 75.9382L107.958 76.0432L107.827 76.2946L106.738 73.3821L106.897 73.3162C106.877 73.2507 106.832 73.2312 106.761 73.2523L106.672 73.2234L97.1713 47.0501C97.0164 46.4729 97.1769 46.0328 97.6486 45.7358C103.765 41.5653 107.22 39.2469 108.026 38.7892C108.154 38.7279 108.34 38.6368 108.575 38.5174C108.82 38.3964 109.102 38.2384 109.409 38.0345L110.845 37.356L110.904 37.3261C113.784 36.305 116.431 36.3616 118.848 37.4848C121.274 38.5962 123.257 40.5533 124.804 43.3551ZM100.108 48.6538L100.042 48.4951L99.9213 48.5342L99.9872 48.6929L100.108 48.6538ZM111.375 58.3422C112.463 57.7316 113.272 57.226 113.801 56.8203C115.33 55.4959 116.39 54.2734 116.979 53.1425C117.423 52.2755 117.557 51.3391 117.379 50.3231C117.348 50.1171 117.252 49.8312 117.102 49.4587C116.662 48.4187 116.03 47.5759 115.208 46.9406C114.396 46.3037 113.56 46.1657 112.701 46.5155C112.472 46.6076 112.312 46.7 112.217 46.7986L108.295 49.4502L111.375 58.3422ZM118.627 44.4485L118.683 44.5454L118.901 44.4496L118.844 44.3528L118.627 44.4485ZM115.88 46.0816C115.847 46.1444 115.839 46.1931 115.86 46.232C115.877 46.2717 115.91 46.2825 115.949 46.2609C116.009 46.3098 116.074 46.3212 116.144 46.2949C116.224 46.2723 116.249 46.2264 116.228 46.1559L116.316 46.0374L115.88 46.0816ZM101.097 52.8663L100.974 52.6108L100.854 52.6499L100.976 52.9054L101.097 52.8663ZM117.753 45.9276L117.687 45.7689L117.511 45.8585L117.577 46.0172L117.753 45.9276ZM118.804 47.6029C118.734 47.4185 118.519 47.319 118.169 47.2978L118.435 47.953C118.563 47.8918 118.688 47.7782 118.804 47.6029ZM119.362 48.6569C119.457 48.4478 119.501 48.32 119.495 48.2788L119.255 48.083L119.098 48.2962C119.098 48.2962 119.09 48.3132 119.083 48.3405C119.072 48.3738 119.069 48.3848 119.069 48.3848L119.01 48.4147C118.903 48.5465 118.826 48.6634 118.788 48.7638L119.362 48.6569ZM120.426 48.7293C120.211 48.5245 120.087 48.4325 120.047 48.449L119.897 48.4293L119.827 48.5241C119.873 48.6593 119.969 48.7029 120.119 48.6488L120.426 48.7293ZM118.817 50.3606C118.767 50.2416 118.715 50.1756 118.659 50.1524L118.512 50.1534L118.291 50.2286L118.417 50.5047L118.817 50.3606ZM118.963 51.0549C119.025 50.835 119.038 50.6751 118.995 50.5656C118.862 50.6276 118.766 50.6526 118.71 50.6294L118.579 50.8807C118.517 51.0321 118.499 51.1243 118.536 51.1609L118.963 51.0549ZM119.579 50.6678C119.865 50.5406 119.969 50.3882 119.888 50.2002L119.453 50.3916L119.579 50.6678ZM124.535 49.4412C124.538 49.3881 124.522 49.3168 124.484 49.2382C124.431 49.0935 124.301 48.9654 124.089 48.8549C124.063 48.9589 124.095 49.0331 124.185 49.0723C124.228 49.1817 124.239 49.2538 124.219 49.2989L123.84 49.4399C123.95 49.5394 123.94 49.6146 123.812 49.6758C123.812 49.6758 123.928 49.6743 124.169 49.6646L124.471 49.5771C124.471 49.5771 124.473 49.5557 124.483 49.5122C124.487 49.4695 124.504 49.4458 124.535 49.4412ZM119.439 51.2786C119.785 51.2689 120.067 51.2213 120.28 51.1315C119.982 51.0392 119.837 50.9872 119.837 50.9872C119.65 51.0731 119.549 51.1357 119.529 51.1808L119.439 51.2786ZM119.875 51.3817L119.691 51.5568L120.125 51.6393L120.147 51.5095L119.875 51.3817ZM124.393 49.7574L124.917 51.006L125.093 50.9165L124.569 49.6678L124.393 49.7574ZM119.525 53.5408C119.261 53.4012 119.009 53.3336 118.757 53.3397L119.525 53.5408ZM120.837 55.4088L120.896 55.5263L121.434 55.3193L121.374 55.2019L120.837 55.4088ZM120.202 56.515C120.174 56.4349 120.104 56.3927 119.992 56.3779C119.888 56.3514 119.799 56.3594 119.721 56.3974L119.756 56.7714L120.202 56.515ZM118.853 57.075L119.17 56.9433L119.131 56.8227L118.814 56.9545L118.853 57.075ZM107.21 62.884C107.088 62.8075 106.953 62.7487 106.805 62.7129C106.689 62.6776 106.618 62.625 106.592 62.5552C106.52 62.7082 106.429 62.806 106.32 62.8487C106.326 62.8899 106.29 62.9322 106.212 62.9703C106.535 62.8797 106.778 62.8854 106.931 62.989L107.21 62.884ZM119.115 57.4151C119.086 57.5037 119.071 57.5479 119.071 57.5479L119.013 57.5778C118.939 57.6468 118.918 57.7184 118.961 57.7962C119.004 57.9056 119.047 57.9466 119.086 57.925L119.147 57.9157C119.238 57.96 119.342 57.9498 119.46 57.8901C119.629 57.8226 119.714 57.7256 119.711 57.5996L119.606 57.3204L119.115 57.4151ZM106.079 63.3483L106.133 63.1505C106.126 63.099 106.11 63.0277 106.082 62.9476L105.823 63.0495L105.862 63.17L106.079 63.3483ZM113.954 59.8098L113.795 59.8757L113.897 60.1343L114.056 60.0684L113.954 59.8098ZM106.604 63.9016C106.752 63.8373 106.873 63.7665 106.971 63.6782C107.158 63.5237 107.267 63.439 107.29 63.4197L106.936 63.3042C106.765 63.2877 106.66 63.2928 106.621 63.3093C106.556 63.3348 106.457 63.4128 106.319 63.5441L106.159 63.884C106.244 63.8871 106.318 63.8918 106.371 63.8943C106.415 63.9036 106.415 63.9088 106.374 63.9149L106.604 63.9016ZM120.568 57.5556L120.597 57.8883L120.82 57.8338L120.866 57.5742L120.568 57.5556ZM117.413 59.8396C117.335 59.8828 117.265 59.9407 117.208 60.0177C117.162 60.0983 117.153 60.1735 117.18 60.2536L117.604 60.127L117.709 60.4062L118.026 60.2744L118.175 60.1468C117.964 60.0679 117.773 60.0596 117.604 60.127L117.6 59.9591C117.578 59.9202 117.514 59.8823 117.413 59.8396ZM119.549 59.3302C119.53 59.3068 119.503 59.3055 119.463 59.322L119.424 59.2014C119.424 59.2014 119.408 59.1986 119.38 59.187C119.361 59.1635 119.353 59.1489 119.353 59.1489L119.111 59.5011L119.549 59.3302ZM106.514 64.5681L106.394 64.6072L106.744 64.9761L106.864 64.937L106.514 64.5681ZM118.717 60.1078C118.756 60.0176 118.766 59.9424 118.745 59.8719C118.717 59.7918 118.646 59.734 118.529 59.6936L118.173 59.8521C118.374 60.0644 118.555 60.1479 118.717 60.1078ZM106.8 65.0729L106.69 65.3212L106.82 65.3439L106.921 65.0338L106.8 65.0729ZM115.247 61.5542L115.388 61.9333L115.835 61.6769L115.247 61.5542ZM108.158 64.5747L108.281 64.8302L108.598 64.6985L108.476 64.4429L108.158 64.5747ZM118.346 60.5846C118.206 60.7741 118.112 60.9884 118.062 61.217L118.479 61.0492L119.379 60.8723L119.323 60.7754L119.252 60.7229L119.136 60.6559L119.078 60.6858L119.046 60.7537L118.855 60.8876L118.658 60.9803L118.346 60.5846ZM119.84 60.9929C119.774 60.8343 119.624 60.7462 119.399 60.7219C119.367 60.8952 119.417 61.051 119.552 61.1834L119.77 61.0877L119.84 60.9929ZM118.749 62.1464C118.853 62.1045 118.958 62.1045 119.064 62.1413C119.127 61.8264 119.158 61.6428 119.152 61.6016L118.997 61.414C118.997 61.414 118.928 61.3769 118.79 61.2976L118.679 61.3985L118.62 61.4284C118.62 61.4284 118.612 61.4454 118.606 61.4727C118.595 61.5059 118.591 61.517 118.591 61.517L118.521 61.6117L118.749 62.1464ZM106.55 66.7747L106.829 66.6697L106.71 66.5821C106.71 66.5821 106.632 66.5517 106.465 66.4924L106.531 66.6511L106.55 66.7747ZM120.346 61.2753L120.435 61.4515L120.81 61.1426L120.747 61.0045L120.346 61.2753ZM115.288 63.6546C115.184 63.9124 115.144 64.0659 115.167 64.1151L115.516 64.1893L115.731 63.799L115.288 63.6546ZM119.547 62.1322C119.587 62.2262 119.71 62.2342 119.91 62.1622L119.986 62.1086C120.008 62.079 119.998 62.0121 119.955 61.9026L119.889 61.7439C119.596 61.8615 119.483 61.989 119.547 62.1322ZM108.413 66.5588L108.135 66.8111L108.195 66.9286L108.511 66.6495L108.413 66.5588ZM120.43 62.4003C120.463 62.2689 120.423 62.1801 120.304 62.1242C120.158 62.2725 120.104 62.4017 120.151 62.5053L120.43 62.4003ZM119.993 62.7185C119.944 62.5995 119.851 62.5449 119.715 62.5495C119.543 62.6331 119.492 62.7513 119.558 62.91L119.993 62.7185ZM107.557 68.0142L107.688 68.3315L107.806 68.2718L107.674 67.9545L107.557 68.0142ZM115.506 65.3915L115.602 65.6089L115.94 65.474L115.844 65.2567L115.506 65.3915ZM107.882 68.6396C107.895 68.7957 107.905 68.9311 107.923 69.0547C107.931 69.1799 107.95 69.3035 107.979 69.4256C107.987 69.5508 107.99 69.6767 107.993 69.8026C108.001 69.9278 108.024 70.0455 108.066 70.1498C108.092 70.2196 108.135 70.2606 108.191 70.2786C108.299 70.3361 108.345 70.3925 108.321 70.4486C108.157 70.547 108.14 70.676 108.274 70.8349C108.444 71.0201 108.508 71.1685 108.465 71.2697C108.465 71.2697 108.447 71.3251 108.405 71.4263C108.405 71.4263 108.402 71.4425 108.39 71.4706C108.382 71.4875 108.373 71.4942 108.373 71.4942C108.296 71.5478 108.28 71.6135 108.318 71.692C108.346 71.7721 108.39 71.8234 108.446 71.8414C108.446 71.8414 108.471 71.8692 108.52 71.9146C108.559 71.9666 108.547 72.0264 108.483 72.0887L108.392 72.1865L108.354 72.2133C108.532 72.3447 108.619 72.4686 108.622 72.5945C108.648 73.0539 108.734 73.3465 108.878 73.4619C108.925 73.497 108.965 73.549 108.985 73.6144C108.996 73.6866 108.981 73.7308 108.942 73.7473C108.931 73.9595 108.981 74.1838 109.085 74.4211C109.183 74.6907 109.279 74.8713 109.377 74.9671C109.277 75.04 109.229 75.1368 109.232 75.2627L109.14 75.6346L109.206 75.7932C109.408 76.3001 109.534 76.6499 109.575 76.8544C109.617 77.1325 109.667 77.3569 109.718 77.5281C109.759 77.6907 109.801 77.8318 109.845 77.9516C109.888 78.061 109.903 78.164 109.891 78.2606L109.884 78.4934C109.955 78.683 110.089 78.9473 110.299 79.295C110.502 79.6332 110.679 79.8279 110.83 79.8895C111.09 79.8664 111.365 79.799 111.642 79.6837L112.392 79.4872L107.882 68.6396ZM106.71 71.364L106.641 71.1847L106.324 71.3165L106.393 71.4958L106.71 71.364ZM107.099 72.2747C106.996 72.2217 106.881 72.2232 106.763 72.2829C106.634 72.3339 106.585 72.3938 106.623 72.4724L106.827 72.5683C106.937 72.5255 107.027 72.4277 107.099 72.2747ZM107.325 72.9362C107.395 72.9151 107.408 72.8605 107.365 72.7827C107.129 72.7916 106.951 72.8658 106.83 73.0102L107.199 73.0814L107.325 72.9362ZM107.492 73.3534C107.27 73.3446 107.134 73.2807 107.085 73.1617L107.115 73.3677C107.142 73.4375 107.143 73.4847 107.116 73.515L107.492 73.3534ZM112.535 71.8611C112.597 71.994 112.69 72.1222 112.824 72.2392L112.566 71.6458L112.535 71.8611ZM107.398 74.6946L107.461 74.8327L107.74 74.7277L107.678 74.5896L107.398 74.6946ZM113.02 72.9892L113.027 73.1777C113.049 73.2483 113.044 73.291 113.005 73.3075C113.194 73.4476 113.254 73.5334 113.189 73.5538C113.129 73.5365 113.093 73.5419 113.086 73.5692C113.075 73.6024 113.075 73.6341 113.081 73.6753C113.145 73.8236 113.209 73.93 113.278 74.0039C113.355 74.066 113.459 74.1611 113.595 74.2935L112.893 72.4185L113.02 72.9892ZM108.309 76.9808L108.16 77.1085L108.19 77.1672L108.357 77.0158L108.309 76.9808ZM117.555 78.2297L117.437 78.2894L117.562 78.4182L117.679 78.3585L117.555 78.2297Z" fill="#BE2726"/>
<path d="M182.434 37.7425C182.778 37.7998 183.039 37.9665 183.205 38.2425C183.382 38.5238 183.445 38.8363 183.393 39.18C181.809 45.5706 180.544 51.5238 179.601 57.0342C179.476 57.6175 179.32 58.4925 179.143 59.6592L178.684 62.2425L178.393 62.2008C178.153 62.1748 178.018 62.1696 177.976 62.18C177.934 62.2217 177.684 62.2113 177.226 62.1383L177.33 62.2842L177.184 62.3883L177.309 62.4092L177.539 62.3675C177.606 62.4248 177.799 62.4821 178.122 62.5342L178.518 62.5967C178.601 62.5967 178.643 62.6123 178.643 62.6383L178.622 62.7633L178.33 62.7217L178.414 62.805L178.289 62.8883L178.58 62.93C178.106 65.8883 177.424 70.2946 176.539 76.1383C176.424 76.9404 175.987 77.2894 175.226 77.18L167.497 76.2008C166.955 76.1279 166.606 75.8154 166.455 75.2633L165.955 72.7008H165.997L166.018 72.6592L165.914 72.6383L163.143 59.7217C163.46 59.6279 163.716 59.529 163.914 59.43L163.601 59.4508L163.497 59.3675L163.184 59.3883L163.059 59.43L161.747 53.2842L158.226 73.805C158.044 74.5654 157.58 74.8935 156.83 74.7842L148.997 73.5967C148.648 73.5394 148.388 73.3831 148.205 73.1175C148.028 72.8571 147.966 72.555 148.018 72.2217C148.393 70.2113 148.976 67.3571 149.768 63.6592L150.039 62.305C151.565 55.0706 152.674 49.9404 153.372 46.9092L156.226 34.93C156.377 34.2373 156.815 33.93 157.539 34.0133L163.143 34.68C164.393 34.779 165.414 35.2425 166.205 36.0758C166.997 36.9092 167.57 37.9873 167.934 39.305L167.976 39.3883L170.914 52.7217L174.143 37.43C174.252 36.7113 174.716 36.4092 175.539 36.5342L182.434 37.7425ZM159.934 42.68C159.862 42.6696 159.773 42.7165 159.664 42.8258L159.997 43.0342C160.023 42.8831 160.002 42.7633 159.934 42.68ZM158.789 45.6175L158.809 45.43L158.455 45.3675L158.434 45.555L158.789 45.6175ZM159.684 46.0133C159.851 45.9196 159.945 45.7998 159.976 45.6592L159.622 45.5967L159.58 45.805C159.648 45.904 159.684 45.9717 159.684 46.0133ZM162.414 46.3675C162.247 46.1592 162.127 46.029 162.059 45.9717C162.028 46.1123 162.044 46.2738 162.101 46.4508L162.289 46.4092L162.414 46.3675ZM160.997 46.5758C161.122 46.6071 161.289 46.5706 161.497 46.4717L161.58 46.3675L160.539 46.2217L160.58 46.0342L160.101 45.9508L160.059 46.2008L160.539 46.2842V46.2217L160.622 46.3258L160.872 46.4925C160.856 46.5342 160.898 46.5654 160.997 46.5758ZM161.893 46.7842L162.018 46.5967L161.58 46.43L161.559 46.5967L161.893 46.7842ZM162.268 46.8675C162.46 46.9092 162.632 46.8831 162.789 46.7842C162.648 46.6488 162.518 46.5706 162.393 46.555C162.294 46.6123 162.268 46.6592 162.309 46.7008L162.268 46.8675ZM160.351 46.6592C160.445 46.8675 160.622 46.9404 160.872 46.8675C160.757 46.7581 160.585 46.6904 160.351 46.6592ZM159.018 49.5967L158.976 49.8258L159.434 49.9092L159.476 49.68L159.018 49.5967ZM161.393 50.7217L161.976 50.8258L162.018 50.5967L161.434 50.4925L161.393 50.7217ZM161.997 52.4717C162.007 52.3623 161.882 52.2321 161.622 52.0758C161.664 52.3988 161.731 52.6071 161.83 52.7008L161.997 52.4717ZM166.122 52.8675C166.091 53.0654 166.044 53.1904 165.976 53.2425C165.919 53.2998 165.757 53.305 165.497 53.2633L165.58 53.4508L166.393 53.0342L166.122 52.8675ZM161.184 52.6175L161.226 52.2633L160.809 52.2008L160.768 52.555L161.184 52.6175ZM165.143 53.68L165.184 53.3258L164.893 53.2842L164.851 53.6383L165.143 53.68ZM159.684 52.68C159.82 52.904 159.934 53.0133 160.018 53.0133C160.112 53.0029 160.195 52.9248 160.268 52.7842L159.684 52.68ZM165.851 53.9092C165.851 53.9092 165.856 53.8675 165.872 53.7842L165.768 53.6592L165.684 53.8258L165.768 54.0758H165.809L165.851 53.9092ZM162.101 53.2217C162.419 53.404 162.69 53.4456 162.914 53.3467L162.101 53.2217ZM160.747 53.5133L160.705 53.7217L161.289 53.805L161.33 53.5967L160.747 53.5133ZM158.851 53.805C158.862 53.7217 158.841 53.5967 158.789 53.43L158.809 53.3258C158.528 53.2842 158.33 53.3154 158.205 53.4092L158.164 53.7008L158.851 53.805ZM165.955 54.8675L166.184 54.9092L166.226 54.68L165.997 54.6383L165.955 54.8675ZM165.518 55.3258L165.539 55.1592L165.143 55.0967L165.122 55.2633L165.518 55.3258ZM170.643 56.0967L170.789 55.9508L170.664 55.93L170.601 56.055L170.643 56.0967ZM158.372 54.7425C158.497 54.6904 158.559 54.6488 158.559 54.6175C158.585 54.4508 158.424 54.3206 158.08 54.2217L158.039 54.5758L158.372 54.7425ZM159.101 54.93L159.143 54.7008L158.726 54.6383L158.684 54.8675L159.101 54.93ZM165.893 56.3883C165.835 56.1696 165.83 55.9404 165.872 55.7008C165.841 55.7321 165.815 55.7529 165.789 55.7633C165.757 55.779 165.747 55.805 165.747 55.8467L165.518 56.0133L165.351 56.0342L165.268 56.1383C165.335 56.2217 165.372 56.279 165.372 56.305L165.476 56.3883H165.893ZM163.58 56.3675C163.58 56.3675 163.565 56.3571 163.539 56.3258C163.523 56.2998 163.518 56.2842 163.518 56.2842C163.445 56.2842 163.382 56.2373 163.33 56.1383C163.247 56.1279 163.195 56.1956 163.184 56.3467L163.164 56.4717L163.559 56.5342L163.58 56.3675ZM158.289 55.6175C158.065 55.7165 157.945 55.8415 157.934 55.9925L158.518 56.0758L158.289 55.6175ZM173.414 57.8883L173.372 58.0758H173.476L173.518 57.8883H173.414ZM159.664 56.3675L159.58 56.8258L159.934 56.8883L160.018 56.43L159.664 56.3675ZM156.976 56.0342L156.914 56.43L157.393 56.4925L157.455 56.0967L156.976 56.0342ZM165.747 58.2842C165.705 58.5238 165.856 58.6696 166.205 58.7217L166.268 58.3675L165.747 58.2842ZM167.539 59.3258C167.174 59.0758 166.914 58.9404 166.747 58.9092C166.716 59.1071 166.856 59.2633 167.164 59.3883C167.216 59.3623 167.278 59.3467 167.351 59.3467L167.539 59.3258ZM165.372 59.43L165.684 59.0967L165.33 58.9925L165.101 59.2633L165.372 59.43ZM165.601 59.2217L165.643 59.3883L166.351 59.3258L166.268 59.1383L165.601 59.2217ZM171.684 60.2425L171.893 60.0342L171.664 59.9508L171.476 60.0967L171.684 60.2425ZM167.58 59.8258L167.559 59.5758L167.08 59.6175L167.101 59.805L167.58 59.8258ZM155.789 58.4092C156.023 58.4508 156.226 58.4404 156.393 58.3675L156.33 57.9925C155.997 58.1175 155.815 58.2581 155.789 58.4092ZM164.893 59.5758C164.752 59.4092 164.632 59.2946 164.539 59.2217C164.466 59.3467 164.315 59.4092 164.08 59.4092C164.122 59.4508 164.184 59.4821 164.268 59.4925L164.351 59.5758L164.58 59.7217L164.747 59.7008L164.893 59.5758ZM157.101 58.5342L157.059 58.7425L157.518 58.68L157.455 58.43L157.101 58.5342ZM157.664 59.4508C157.341 59.1904 157.184 59.055 157.184 59.055L157.039 58.93L156.455 58.7217L156.497 59.2842L157.664 59.4508ZM165.414 61.2217C165.414 60.9717 165.309 60.8363 165.101 60.805C165.07 60.8467 165.065 60.904 165.08 60.9717C165.08 60.9717 165.085 60.9873 165.101 61.0133C165.127 61.0446 165.143 61.055 165.143 61.055L165.414 61.2217ZM171.184 62.0133C171.226 62.2217 171.289 62.3571 171.372 62.4092C171.455 62.3831 171.487 62.2842 171.476 62.1175L171.226 62.0967L171.184 62.0133ZM165.414 61.5758L165.476 61.5967C165.518 61.5967 165.58 61.5654 165.664 61.4925H165.726L165.789 61.4508L165.351 61.2633L165.309 61.5967L165.414 61.5758ZM167.851 62.1175L167.789 61.68L167.601 61.7217L167.559 62.0758L167.851 62.1175ZM157.83 60.555L157.872 60.2633L157.289 60.18L157.247 60.4717L157.83 60.555ZM165.726 62.3258L165.997 62.4717L166.164 62.2633L165.872 62.1592L165.726 62.3258ZM157.539 61.0342L157.476 61.43L157.83 61.4925L157.893 61.0967L157.539 61.0342ZM164.976 62.555C164.893 62.5446 164.82 62.5654 164.768 62.6175C164.726 62.6748 164.737 62.7321 164.809 62.7842H165.164L164.976 62.555ZM167.351 63.4717C167.294 63.5029 167.226 63.5081 167.143 63.4925H167.018C167.018 63.5238 167.085 63.6592 167.226 63.9092L167.393 64.2425C167.559 64.1904 167.69 64.1279 167.789 64.055C167.841 64.029 167.919 63.9925 168.018 63.9508C168.112 63.9092 168.21 63.8571 168.309 63.7842H167.934L167.83 63.7633L167.705 63.8258L167.58 63.8675C167.507 63.7738 167.481 63.7008 167.497 63.6592C167.497 63.5915 167.46 63.529 167.393 63.4717H167.351ZM165.851 63.4717L165.747 63.2842H165.351L165.414 63.5342L165.851 63.4717ZM156.976 62.3467C156.752 62.305 156.643 62.2998 156.643 62.3258C156.559 62.3571 156.507 62.404 156.497 62.4717L156.809 62.7633L156.955 62.4925L156.976 62.3467ZM168.205 64.4092L168.018 64.4508L168.08 64.3467L167.622 64.2842C167.58 64.2998 167.502 64.2998 167.393 64.2842C167.403 64.4508 167.466 64.5498 167.58 64.5758L167.705 64.68C167.815 64.5967 167.872 64.555 167.872 64.555L168.414 64.6383L168.893 64.5758L168.809 64.3883L168.309 64.43L168.205 64.4092ZM169.164 65.0967L169.434 65.0133L169.309 64.6383L168.997 64.7217L169.164 65.0967ZM164.789 64.2633C164.882 64.3206 165.059 64.3415 165.309 64.3258C165.21 64.1592 165.044 64.0654 164.809 64.0342L164.789 64.2633ZM159.289 63.6175L159.247 63.9717L159.643 64.0342L159.684 63.68L159.289 63.6175ZM167.601 65.2633C167.809 65.4717 168.07 65.555 168.393 65.5133L168.414 65.3467C168.424 65.18 168.33 65.0706 168.122 65.0133L167.643 65.0342L167.601 65.2633ZM166.018 65.0967L166.059 64.805L165.83 64.7633L165.789 65.055L166.018 65.0967ZM167.226 65.4092C167.195 65.3258 167.132 65.2633 167.039 65.2217C166.94 65.18 166.856 65.1488 166.789 65.1175L166.559 65.0133L166.726 65.4717L167.226 65.4092ZM170.476 66.7008C170.695 66.8258 170.82 66.8883 170.851 66.8883C170.945 66.8623 170.987 66.8154 170.976 66.7425C170.96 66.6592 170.924 66.5915 170.872 66.5342L170.476 66.7008ZM168.122 67.2008L168.393 67.18L168.164 66.3258H167.914L168.122 67.2008ZM165.643 65.9717L165.601 66.2842L165.997 66.3467L166.039 66.0342L165.643 65.9717ZM165.851 66.8675C165.794 66.7738 165.835 66.6331 165.976 66.4508L165.393 66.555C165.377 66.6279 165.44 66.6748 165.58 66.7008C165.58 66.7425 165.622 66.7738 165.705 66.7842L165.851 66.8675ZM169.58 68.3675C169.632 68.4508 169.705 68.5029 169.789 68.5133L170.268 68.4717C169.835 68.18 169.612 67.9508 169.601 67.7842L169.643 67.4925C169.643 67.4925 169.648 67.4873 169.664 67.4717C169.69 67.4613 169.705 67.4508 169.705 67.4508L169.664 67.3675L169.289 67.4508C169.273 67.4925 169.174 67.5133 168.997 67.5133L168.851 67.6175L168.664 67.7217L169.059 67.805L169.393 67.93C169.445 68.0967 169.507 68.2425 169.58 68.3675ZM167.601 67.5967C167.612 67.529 167.518 67.4092 167.309 67.2425L167.434 67.8258L167.601 67.5967ZM168.247 68.8258C168.58 68.7842 168.768 68.7581 168.809 68.7425L168.997 68.6383L169.122 68.5342L169.226 68.4925L169.143 68.0758L168.914 68.055L168.643 67.8883C168.627 67.9717 168.648 68.0863 168.705 68.2217C168.705 68.2217 168.71 68.2373 168.726 68.2633C168.737 68.2946 168.747 68.305 168.747 68.305L168.726 68.43C168.809 68.4717 168.799 68.529 168.705 68.5967C168.705 68.6383 168.648 68.6748 168.539 68.7008C168.44 68.7165 168.341 68.7581 168.247 68.8258ZM156.059 66.1175L155.997 66.5133L156.33 66.5758L156.393 66.18L156.059 66.1175ZM166.705 68.8883L166.914 69.055L168.289 68.5342C168.08 68.5915 167.856 68.5967 167.622 68.555C167.539 68.6123 167.398 68.6279 167.205 68.5967C166.898 68.6383 166.684 68.6956 166.559 68.7633L166.643 68.8258H166.705V68.8883ZM171.247 68.9717C171.216 69.1696 171.169 69.2842 171.101 69.3258C171.044 69.3571 170.882 69.3467 170.622 69.305L170.726 69.555L171.539 69.0758L171.247 68.9717ZM156.372 67.2217C156.69 67.154 156.898 67.0863 156.997 67.0133C156.856 66.9196 156.669 66.8467 156.434 66.805L156.372 67.2217ZM170.059 70.2842L170.33 70.3675L170.455 70.055L170.164 70.0133L170.059 70.2842ZM156.955 68.1383L156.893 68.4717L157.476 68.5758L157.539 68.2425L156.955 68.1383ZM168.955 70.055L168.58 70.3675L168.664 70.4092C168.705 70.4248 168.731 70.4456 168.747 70.4717C168.773 70.4873 168.778 70.5133 168.768 70.555L169.289 70.5133L168.955 70.055ZM169.622 70.5133C169.466 70.654 169.466 70.7373 169.622 70.7633C169.747 70.779 169.83 70.7633 169.872 70.7217L169.83 70.6592C169.747 70.6488 169.674 70.5967 169.622 70.5133ZM170.184 71.0758C170.184 71.1175 170.122 71.1331 169.997 71.1175L169.934 71.0967L169.643 71.4092V71.4717L169.705 71.4925L169.976 71.18C170.143 71.154 170.299 71.1748 170.455 71.2425L170.518 71.18L170.184 71.0758ZM171.205 71.2842C171.08 71.3571 170.966 71.4404 170.872 71.5342H170.809L170.851 71.5967C170.96 71.4613 171.07 71.3779 171.184 71.3467L171.247 71.3675L171.205 71.2842ZM167.205 71.7633C167.299 71.7373 167.393 71.6696 167.476 71.555L166.872 71.5758L166.768 71.555L166.539 71.5967C166.664 71.7217 166.643 71.8623 166.476 72.0133C166.737 72.055 166.898 72.0133 166.955 71.8883C167.08 71.8363 167.164 71.7946 167.205 71.7633C167.257 71.7217 167.257 71.7217 167.205 71.7633Z" fill="#BE2726"/>
<path d="M225.747 79.9309C225.981 80.0455 226.34 80.2382 226.83 80.5143C228.465 81.5039 229.434 82.6809 229.726 84.0559C230.028 85.4309 229.689 86.9466 228.705 88.5976C228.549 88.8632 228.231 89.3164 227.747 89.9726C225.981 92.233 223.924 94.0664 221.58 95.4726C219.247 96.8736 216.611 97.4153 213.684 97.0976C211.752 96.8893 209.736 96.1601 207.643 94.9101C206.934 94.4934 206.398 94.1601 206.038 93.9101C203.257 91.9361 201.705 89.5768 201.372 86.8268C201.049 84.0768 201.695 81.108 203.309 77.9101C203.653 77.3007 204.169 76.4205 204.851 75.2643C206.559 72.4049 208.314 69.9882 210.122 68.0143C213.424 64.4726 216.913 62.1757 220.58 61.1184C224.997 59.9257 228.945 60.3684 232.434 62.4518C236.153 64.6601 237.96 67.608 237.851 71.2851C237.752 72.9101 237.153 74.6497 236.059 76.4934C235.226 77.8997 234.268 79.1966 233.184 80.3893C232.768 80.8789 232.294 80.9622 231.768 80.6393L225.122 76.9518C224.757 76.7851 224.559 76.5091 224.518 76.1184C224.486 75.7174 224.59 75.3893 224.83 75.1393C225.689 74.1549 226.382 73.2226 226.913 72.3476C227.523 71.3059 227.622 70.4726 227.205 69.8476C226.997 69.5976 226.809 69.4257 226.643 69.3268C225.835 68.8424 224.439 69.0559 222.455 69.9726C219.122 71.7226 215.861 75.2747 212.684 80.6184C212.101 81.608 211.59 82.6601 211.163 83.7851C210.731 84.9101 210.705 85.7799 211.08 86.3893C211.382 86.9205 211.778 87.3268 212.268 87.6184C212.96 88.0351 213.778 88.1705 214.726 88.0143C215.684 87.8476 216.544 87.4518 217.309 86.8268L215.038 85.9101L214.788 85.7643C214.523 85.6132 214.356 85.4049 214.288 85.1393C214.189 84.7643 214.273 84.4049 214.538 84.0559L219.33 78.1393C219.773 77.6393 220.252 77.5299 220.768 77.8059C223.434 78.9309 225.09 79.6393 225.747 79.9309ZM231.788 67.1393L231.934 67.2226L232.101 67.1809C232.252 67.1393 232.33 67.1184 232.33 67.1184L231.934 66.7851L231.809 66.9934L231.788 67.1393ZM232.788 67.9726C232.663 67.9622 232.518 67.9049 232.351 67.8059C232.309 67.7799 232.153 67.8007 231.893 67.8684L231.976 68.0976L232.518 68.4309H232.643L232.705 68.3476C232.564 68.2643 232.528 68.1705 232.601 68.0559C232.611 68.0299 232.674 68.0039 232.788 67.9726ZM236.768 70.9726C236.778 71.0143 236.83 71.0664 236.913 71.1184L237.247 71.0559L237.163 70.9934C237.132 70.9414 237.059 70.8684 236.934 70.7851L236.851 70.8268L236.768 70.9726ZM234.163 69.7018C234.049 69.6601 233.981 69.6549 233.955 69.6809C233.856 69.8476 233.893 69.9882 234.059 70.0976L234.268 70.2226L234.372 70.1601C234.398 70.1757 234.419 70.1601 234.434 70.1184C234.502 70.1184 234.559 70.0872 234.601 70.0143C234.627 69.9466 234.58 69.8268 234.455 69.6601L234.163 69.7018ZM235.372 70.4101C235.273 70.4414 235.215 70.4726 235.205 70.5143C235.174 70.5455 235.215 70.6549 235.33 70.8476L235.434 70.7851L235.559 70.5768C235.57 70.5507 235.507 70.4934 235.372 70.4101ZM231.413 69.2226C231.523 69.2955 231.606 69.3632 231.663 69.4309L231.747 69.2851L231.893 69.2226C231.809 69.0976 231.695 68.9934 231.559 68.9101C231.419 68.8268 231.32 68.8268 231.268 68.9101L231.413 69.2226ZM234.497 70.9934L234.559 70.8684L234.518 70.7851L234.351 70.9726L234.497 70.9934ZM227.913 67.2018L228.038 67.1393L227.934 67.0768L227.809 67.1393L227.913 67.2018ZM228.163 67.6809L228.101 67.9101L228.518 68.1601C228.559 68.0924 228.58 67.9726 228.58 67.8059C228.523 67.8216 228.445 67.8007 228.351 67.7434L228.163 67.6809ZM232.372 70.9518C232.33 71.0247 232.351 71.0716 232.434 71.0976C232.528 71.1132 232.59 71.0924 232.622 71.0351L232.726 70.8684L232.497 70.7434L232.372 70.9518ZM232.08 71.3059C232.023 71.4205 232.023 71.5664 232.08 71.7434C232.148 71.9101 232.247 72.0299 232.372 72.0976C232.481 72.1705 232.564 72.1966 232.622 72.1809L232.768 72.2851C232.778 72.2591 232.778 72.2174 232.768 72.1601C232.752 72.0924 232.71 72.0351 232.643 71.9934C232.528 71.9257 232.518 71.8268 232.601 71.7018C232.559 71.6341 232.559 71.5664 232.601 71.4934C232.643 71.4414 232.627 71.3893 232.559 71.3476L232.205 71.2018L232.08 71.3059ZM231.497 70.9726C231.549 70.8789 231.523 70.7955 231.413 70.7226C231.314 70.7539 231.231 70.7434 231.163 70.7018C231.09 70.6601 231.038 70.6757 230.997 70.7434C230.955 70.8164 230.965 70.8684 231.038 70.9101L231.351 71.0976C231.393 71.1289 231.439 71.0872 231.497 70.9726ZM230.497 71.1393C230.648 71.1289 230.648 71.0559 230.497 70.9309L230.393 71.0768L230.497 71.1393ZM231.788 72.8684C231.788 72.8684 231.794 72.9205 231.809 73.0143C231.851 73.0455 231.882 73.0351 231.913 72.9934C231.965 72.983 232.002 72.9466 232.018 72.8893C232.028 72.8372 232.018 72.7955 231.976 72.7643C231.877 72.8059 231.814 72.8424 231.788 72.8684ZM231.163 72.5351C231.215 72.4414 231.08 72.2955 230.747 72.0976L230.33 71.8476C230.132 71.7382 229.981 71.6966 229.872 71.7226C229.924 71.7955 230.007 71.9101 230.122 72.0768C230.231 72.233 230.32 72.358 230.393 72.4518L230.851 72.6393C230.986 72.6809 231.09 72.6497 231.163 72.5351ZM230.393 73.1393L230.58 73.0976L230.663 72.9518C230.731 72.8424 230.689 72.7434 230.538 72.6601L230.351 72.6184L230.309 72.5976L230.205 72.7851L230.393 73.1393ZM231.747 74.0559C231.83 74.0872 231.903 74.0455 231.976 73.9309L231.913 73.8059L231.726 73.7851L231.518 73.6601C231.528 73.7018 231.606 73.8372 231.747 74.0559ZM229.684 73.6393C229.794 73.7122 229.877 73.7226 229.934 73.6809L230.288 73.6601C230.34 73.7018 230.403 73.7174 230.476 73.7018L230.559 73.5559L230.518 73.3893L230.351 73.2018C230.143 73.3684 229.877 73.358 229.559 73.1601L229.538 73.4309C229.538 73.5143 229.585 73.5872 229.684 73.6393ZM220.955 68.0976C220.872 68.0976 220.799 68.1497 220.747 68.2434C220.689 68.3164 220.757 68.5039 220.955 68.8059L221.101 69.0143L221.33 68.8268C221.33 68.8268 221.257 68.5664 221.122 68.0351C221.106 68.0507 221.049 68.0716 220.955 68.0976ZM230.893 74.5143C231.018 74.5976 231.101 74.5976 231.143 74.5143C231.153 74.4309 231.111 74.3632 231.018 74.3059C230.861 74.4049 230.82 74.4726 230.893 74.5143ZM216.309 66.4309C216.309 66.4309 216.32 66.4309 216.351 66.4309C216.393 66.4309 216.413 66.4309 216.413 66.4309C216.413 66.4309 216.403 66.4205 216.393 66.3893C216.377 66.3632 216.372 66.3476 216.372 66.3476L216.393 66.2851C216.309 66.233 216.231 66.2747 216.163 66.4101C216.231 66.4518 216.278 66.4622 216.309 66.4309ZM220.268 69.0143C220.169 69.0039 220.085 69.0247 220.018 69.0768C219.945 69.1184 219.903 69.1549 219.893 69.1809L220.205 69.3684C220.455 69.3268 220.726 69.3997 221.018 69.5768L220.268 69.0143ZM229.768 75.2018C229.82 75.108 229.814 75.0091 229.747 74.9101C229.507 74.8424 229.361 74.858 229.309 74.9518L229.455 75.0768L229.559 75.2226C229.669 75.1966 229.736 75.1914 229.768 75.2018ZM229.122 74.8268C229.148 74.7851 229.132 74.733 229.08 74.6601C229.023 74.5924 228.96 74.5351 228.893 74.4934C228.768 74.4257 228.674 74.4414 228.622 74.5351L229.122 74.8268ZM225.163 75.7643C224.898 75.7226 224.731 75.7591 224.663 75.8684L224.976 76.0559C225.018 76.0455 225.064 75.9934 225.122 75.9101C225.106 75.8684 225.122 75.8216 225.163 75.7643ZM225.83 81.6184L225.58 81.4726L225.518 81.5768C225.544 81.5351 225.585 81.5299 225.643 81.5559L225.83 81.6184ZM228.018 83.1393C227.986 83.0716 227.913 83.0039 227.788 82.9309C227.538 82.7799 227.32 82.7851 227.143 82.9518C227.252 83.1184 227.335 83.2174 227.393 83.2434L227.872 83.3893L228.018 83.1393ZM227.476 83.6393L227.393 83.5976L227.288 83.7851L227.372 83.8268L227.476 83.6393ZM225.705 86.7643L225.997 86.3684L226.434 85.8059L226.309 85.4726C226.518 85.3632 226.653 85.2539 226.726 85.1393C226.768 85.0872 226.778 85.0299 226.768 84.9726L227.08 84.5559L226.913 84.4726C226.898 84.4622 226.83 84.4622 226.705 84.4726L226.538 84.5143C226.455 84.9205 226.377 85.1289 226.309 85.1393C226.268 85.1549 226.205 85.2226 226.122 85.3476L225.163 86.9518C225.106 86.983 225.044 87.0507 224.976 87.1601L223.893 88.9726C223.903 89.108 223.955 89.2018 224.038 89.2434C224.09 89.2695 224.205 89.2695 224.372 89.2434L224.622 88.8476C224.747 88.4622 224.945 88.0299 225.226 87.5559L225.559 87.0143L225.705 86.8684V86.7643ZM223.747 86.8059C223.84 86.8216 223.913 86.7955 223.955 86.7226L223.663 86.4934L223.538 86.6184L223.747 86.8059ZM208.518 81.8476C208.601 81.7955 208.674 81.7018 208.747 81.5768C208.773 81.4414 208.83 81.3059 208.913 81.1809L208.83 81.0559L208.476 80.8476C208.236 81.1289 208.122 81.2955 208.122 81.3476L208.059 81.5768L208.268 81.7018C208.335 81.7851 208.419 81.8372 208.518 81.8476ZM209.434 89.3893L209.184 89.5768L209.288 89.6393L209.351 89.7226L209.58 89.8476L209.747 89.5559L209.434 89.3893ZM210.747 94.2018C210.689 94.2018 210.606 94.1705 210.497 94.1184C210.413 94.0455 210.309 94.0195 210.184 94.0351L210.163 94.0976C210.163 94.0976 210.163 94.108 210.163 94.1393C210.174 94.1809 210.184 94.2018 210.184 94.2018L210.747 94.5351L210.913 94.4726L210.747 94.2018Z" fill="#BE2726"/>
<path d="M248.297 111.844L248.162 111.957L248.199 112.002C246.727 113.106 244.98 114.243 242.948 115.41L242.95 115.16C242.975 115.005 242.999 114.918 243.017 114.894L242.659 114.463L242.485 114.531L242.44 114.569C242.553 114.705 242.607 114.798 242.602 114.855L242.83 115.107C242.784 115.155 242.793 115.281 242.858 115.486L241.278 116.282L241.05 116.031L241.005 116.068L241.233 116.32C241.01 116.466 240.711 116.596 240.338 116.718C240.253 116.737 240.193 116.71 240.157 116.639C240.132 116.579 240.107 116.561 240.078 116.59L240.119 116.824C238.268 117.501 236.71 117.959 235.433 118.192L235.397 118.126L234.92 118.082L234.88 118.288L233.471 118.367C228.95 118.673 225.256 117.151 222.385 113.791C219.788 110.749 218.954 107.314 219.88 103.498L219.95 103.42L219.874 103.33C219.957 103.002 220.015 102.83 220.049 102.802C220.651 100.796 221.648 98.8901 223.042 97.0936L223.172 97.0428C223.229 96.9957 223.289 96.9698 223.346 96.975C223.403 96.928 223.41 96.845 223.369 96.7261L223.278 96.8014C223.985 95.9459 224.865 95.0174 225.92 94.0108C226.246 93.931 226.78 93.6505 227.524 93.1751L227.781 93.115L228.053 92.8889C228.114 92.7848 228.202 92.683 228.311 92.578L228.628 92.3143C228.633 92.2624 228.681 92.1936 228.772 92.1183L229.68 91.344C229.827 91.2216 229.949 91.1491 230.035 91.1256C230.172 91.0022 230.274 90.8547 230.347 90.694C230.375 90.6704 230.397 90.6044 230.407 90.4903C231.135 89.9715 231.635 89.6513 231.898 89.5187C238.798 85.2995 244.766 83.8191 249.797 85.0768C252.164 85.7286 254.107 86.9482 255.633 88.7308C257.255 90.6531 258.227 92.7091 258.559 94.8997C258.885 97.0951 258.627 99.1687 257.777 101.125C256.327 104.271 254.052 107.164 250.953 109.807C249.864 110.738 248.989 111.431 248.335 111.889L248.297 111.844ZM255.805 92.094C255.623 92.0773 255.511 92.0984 255.465 92.1465C255.416 92.3407 255.434 92.4784 255.51 92.569L255.894 92.9391L256.249 93.1809L256.245 92.9923L256.29 92.9546C256.213 92.8795 256.183 92.814 256.204 92.7583L256.053 92.5771C255.978 92.4865 255.893 92.327 255.805 92.094ZM255.381 92.599C255.078 92.3776 254.85 92.2887 254.695 92.3267C254.76 92.5314 254.748 92.6663 254.657 92.7416C254.56 92.8896 254.61 93.0825 254.813 93.3208C254.911 93.445 254.969 93.4398 254.981 93.3154C254.962 93.1777 255.065 93.1452 255.283 93.2176C255.405 93.37 255.5 93.4677 255.569 93.5159C255.634 93.5532 255.678 93.5886 255.705 93.633C255.781 93.7132 255.848 93.7246 255.91 93.6728L256.084 93.6051C256.245 93.6774 256.348 93.7445 256.401 93.8016C256.476 93.8922 256.618 93.9367 256.829 93.9247C256.857 93.9011 256.822 93.8299 256.723 93.7058C256.609 93.5854 256.546 93.4698 256.546 93.3547C256.505 93.3509 256.439 93.3867 256.348 93.462C256.286 93.5138 256.226 93.5345 256.175 93.5298C256.146 93.501 256.053 93.4872 255.886 93.4823C255.721 93.4567 255.6 93.4037 255.524 93.3235L255.413 93.1668L255.29 93.1346C255.181 93.0723 255.126 92.9887 255.125 92.8892C255.118 92.7945 255.16 92.7356 255.246 92.7121L255.381 92.599ZM250.595 87.0958C250.756 87.278 250.838 87.4007 250.834 87.4526C250.834 87.4526 250.832 87.4681 250.83 87.4941C250.827 87.5252 250.826 87.5355 250.826 87.5355C250.764 87.5873 250.74 87.6217 250.754 87.6335L250.843 87.8091L251.084 87.9149C251.084 87.9149 251.075 87.9036 251.067 87.8715C251.07 87.8456 251.071 87.83 251.071 87.83L251.143 87.732L250.595 87.0958ZM251.679 88.7228L251.87 88.9286L252.239 89.0045L251.861 88.5721L251.679 88.7228ZM254.228 91.7189L254.513 92.0379L254.603 91.9626L254.319 91.6435L254.228 91.7189ZM256.605 94.7619L256.794 94.9884L256.884 94.9131L256.696 94.6865L256.605 94.7619ZM251.997 89.819C251.907 89.7166 251.939 89.5992 252.092 89.4721L251.845 89.1983L251.799 89.236L251.762 89.1907L251.715 89.2491C251.624 89.4395 251.645 89.6088 251.772 89.7566C251.81 89.8019 251.881 89.8241 251.997 89.819ZM240.254 105.581C240.254 105.581 240.264 105.582 240.295 105.584C240.321 105.587 240.337 105.588 240.337 105.588C240.412 105.679 240.461 105.715 240.495 105.686L240.752 105.626C240.711 105.445 240.665 105.32 240.618 105.258C242.948 103.59 244.96 102.007 246.663 100.5C247.655 99.5456 248.475 98.6586 249.125 97.8397L249.163 97.885L249.153 97.9888L249.379 98.2606C249.47 98.1853 249.52 98.0957 249.531 97.9816C249.341 97.8805 249.209 97.837 249.125 97.8397C249.439 97.4397 249.688 97.0128 249.87 96.5693C250.34 95.6658 250.325 94.9165 249.825 94.3266C249.674 94.1453 249.544 94.0235 249.441 93.9565C248.715 93.487 247.783 93.3804 246.646 93.6366C245.502 93.8976 244.379 94.2859 243.274 94.8119C240.043 96.2722 236.429 98.7119 232.434 102.121C230.13 104.085 229.09 105.725 229.303 107.042C229.383 107.369 229.501 107.625 229.651 107.806C229.692 107.936 229.793 108.081 229.945 108.252C230.837 109.307 232.306 109.421 234.349 108.594C236.391 107.778 238.349 106.729 240.224 105.452L240.254 105.581ZM245.356 93.0996L245.111 92.8051L244.941 93.0614C245.003 93.1247 245.117 93.1927 245.278 93.2598L245.356 93.0996ZM247.688 101.411L247.929 101.516L248.337 101.177C248.313 100.982 248.216 100.79 248.055 100.607C248.026 100.579 247.993 100.591 247.947 100.639C247.869 100.69 247.805 100.71 247.753 100.705L247.485 100.66C247.324 100.593 247.222 100.567 247.178 100.59C247.131 100.643 247.126 100.752 247.168 100.923L247.471 101.265L247.688 101.411ZM247.751 102.316L247.845 102.429C247.897 102.434 247.947 102.46 247.985 102.505C247.985 102.505 247.991 102.495 248.009 102.465C248.039 102.426 248.042 102.395 248.019 102.362L247.978 102.128L247.751 102.316ZM244.531 102.982C244.379 102.817 244.279 102.76 244.233 102.808L244.142 102.884L244.325 103.173C244.342 103.273 244.4 103.378 244.506 103.482L244.626 103.535L244.717 103.46C244.717 103.292 244.653 103.135 244.531 102.982ZM232.479 90.0323C232.569 89.9569 232.657 89.9127 232.743 89.8892C232.833 89.8139 232.893 89.7357 232.932 89.6555C232.652 89.6298 232.483 89.6456 232.426 89.6927C232.426 89.6927 232.42 89.755 232.409 89.8794L232.479 90.0323ZM245.333 104.269C245.361 104.246 245.33 104.185 245.244 104.094L245.069 103.952C245.059 104.066 245.058 104.134 245.071 104.162L245.205 104.299L245.25 104.262L245.333 104.269ZM249.97 110.261C250.051 110.295 250.129 110.359 250.204 110.45L249.918 109.921L249.752 109.906L249.624 109.936C249.704 109.97 249.82 110.08 249.97 110.261ZM245.083 105.167L245.194 105.324L245.421 105.135L245.31 104.979L245.083 105.167ZM243.417 103.487L243.28 103.62C243.263 103.634 243.28 103.673 243.332 103.73C243.332 103.73 243.336 103.751 243.347 103.794C243.354 103.836 243.34 103.877 243.294 103.915C243.34 103.877 243.446 103.918 243.619 104.028L243.947 104.1L244.143 103.783L243.417 103.487ZM245.25 105.622C245.083 105.622 244.988 105.629 244.977 105.638L245.241 105.956C245.344 105.855 245.435 105.722 245.507 105.562C245.416 105.637 245.33 105.66 245.25 105.622ZM232.088 90.1847L232.011 90.1148L231.85 90.2674L231.928 90.3373L232.088 90.1847ZM246.1 107.98C246.215 108.101 246.247 108.266 246.202 108.471C246.421 108.475 246.529 108.386 246.519 108.207C246.394 108.196 246.304 108.156 246.257 108.099L246.1 107.98ZM243.102 106.01C243.253 106.013 243.343 106.001 243.377 105.972C243.339 105.76 243.396 105.592 243.549 105.465C243.663 105.423 243.733 105.289 243.753 105.066C243.753 105.066 243.733 105.064 243.691 105.06C243.66 105.057 243.635 105.044 243.612 105.011L243.497 104.896C243.498 104.995 243.453 105.038 243.359 105.029L243.12 105.133L243.051 105.419C243.018 105.615 243.036 105.81 243.102 106.01ZM242.726 104.406C242.783 104.359 242.81 104.288 242.807 104.205C242.815 104.122 242.804 104.068 242.781 104.035C242.535 104.096 242.438 104.186 242.485 104.3L242.726 104.406ZM246.716 108.79C246.655 108.837 246.623 108.891 246.618 108.948L246.603 109.114C246.711 109.135 246.812 109.113 246.903 109.037L246.716 108.79ZM244.069 106.413C244.064 106.47 244.081 106.508 244.121 106.522C244.162 106.541 244.184 106.523 244.189 106.466L244.288 106.307L244.114 106.375L244.069 106.413ZM247.219 109.924L247.437 110.279L247.482 110.241L247.309 109.849L247.219 109.924ZM245.502 108.114C245.461 108.11 245.425 108.106 245.399 108.104C245.368 108.101 245.341 108.109 245.312 108.138C245.335 108.166 245.374 108.196 245.429 108.232C245.478 108.263 245.555 108.338 245.659 108.463C245.781 108.61 245.799 108.753 245.703 108.885L245.205 108.839C245.328 109.154 245.479 109.393 245.663 109.551C245.65 109.241 245.707 109.126 245.841 109.212L246.21 109.288L245.689 108.131L245.502 108.114ZM247.771 110.749L248.298 111.383L248.389 111.308L247.861 110.674L247.771 110.749ZM247.271 110.724C247.147 110.822 247.113 110.903 247.165 110.965L247.438 111.179L247.489 111.079L247.58 111.004L247.365 110.837L247.271 110.724ZM247.762 111.753C247.811 111.506 247.735 111.415 247.536 111.481L247.762 111.753ZM241.374 105.684L241.478 105.923C241.524 105.985 241.875 106.206 242.526 106.585L242.304 105.811L242.272 105.473L242.197 105.153L241.956 105.047C241.909 105.1 241.789 105.152 241.607 105.203L241.267 105.485L241.374 105.684ZM246.225 110.042C246.121 109.917 245.999 109.823 245.853 109.757C245.776 109.802 245.746 109.904 245.762 110.062L245.951 110.289L246.185 110.248C246.247 110.306 246.316 110.301 246.396 110.225L246.225 110.042ZM246.396 110.685C246.292 110.728 246.191 110.693 246.092 110.574L245.996 110.481C246.025 110.453 246.004 110.398 245.928 110.308C245.876 110.245 245.836 110.226 245.808 110.255L245.695 110.119C245.567 109.966 245.438 109.949 245.302 110.062C245.4 110.196 245.501 110.237 245.604 110.194C245.554 110.284 245.528 110.334 245.528 110.334L245.46 110.39L244.537 109.97C244.322 110.144 244.2 110.274 244.166 110.355C244.099 110.459 244.097 110.537 244.166 110.585C244.23 110.633 244.264 110.657 244.264 110.657L244.417 110.817C244.464 110.874 244.496 110.976 244.515 111.119L244.552 111.625L244.39 111.568C244.351 111.533 244.343 111.506 244.377 111.483L244.301 111.392C244.198 111.268 244.093 111.206 243.985 111.196L243.706 111.045L243.515 110.839C243.5 111.005 243.459 111.111 243.402 111.163C243.331 111.308 243.295 111.415 243.288 111.488C243.164 111.586 243.155 111.69 243.26 111.799C243.329 111.957 243.451 112.109 243.636 112.252C243.618 112.109 243.688 111.974 243.84 111.852L243.765 111.761C243.614 111.58 243.568 111.461 243.63 111.414L243.675 111.377L244.029 111.618L244.28 111.851C244.48 111.953 244.591 111.989 244.625 111.966L244.929 112.078C244.825 111.953 244.805 111.826 244.859 111.695L245.02 111.542L244.965 111.453C244.926 111.419 244.935 111.377 244.997 111.331C245.054 111.279 245.119 111.258 245.192 111.265L245.376 111.303L245.36 111.029C245.343 110.871 245.351 110.783 245.384 110.76C245.474 110.695 245.637 110.804 245.878 111.077L245.865 110.762C245.843 110.661 245.86 110.594 245.905 110.557L246.094 110.783C246.119 110.963 246.252 111.164 246.499 111.385C246.573 111.319 246.638 111.293 246.695 111.299C246.747 111.303 246.801 111.277 246.848 111.229C246.92 111.178 246.925 111.074 246.856 110.916C246.797 110.754 246.739 110.644 246.677 110.586C246.63 110.634 246.533 110.667 246.396 110.685ZM244.16 109.057L244.236 109.148L244.404 109.142L244.373 109.014L244.16 109.057ZM246.613 111.731C246.522 111.816 246.521 111.942 246.62 112.108L246.747 112.098L246.832 112.085L246.613 111.731ZM241.281 106.7C241.343 106.763 241.441 106.835 241.575 106.916C241.72 106.986 241.823 107.001 241.884 106.965C241.976 106.879 242.007 106.819 241.984 106.786L241.975 106.659L241.803 106.476C241.6 106.238 241.385 106.14 241.161 106.187C241.111 106.381 241.153 106.552 241.281 106.7ZM246.219 111.924L246.053 111.449C245.853 111.64 245.859 111.855 246.077 112.1C246.153 112.19 246.202 112.221 246.236 112.198L246.311 112.289L246.219 111.924ZM246.907 112.636L246.718 112.41L246.626 112.506L246.814 112.732L246.907 112.636ZM242.705 108.505L242.479 108.233C242.315 108.312 242.249 108.453 242.273 108.653L242.461 108.88C242.565 108.774 242.607 108.71 242.584 108.682L242.705 108.505ZM245.334 112.45C245.429 112.61 245.504 112.701 245.56 112.722L245.713 112.422C245.77 112.37 245.768 112.28 245.696 112.148C245.492 112.088 245.381 112.046 245.372 112.035C245.273 112.026 245.21 112.03 245.181 112.059L245.191 112.186L245.145 112.223L245.334 112.45ZM241.826 108.047C241.831 107.823 241.798 107.668 241.723 107.578L241.517 107.768L241.826 108.047ZM242.896 109.38C242.624 109.272 242.353 109.257 242.083 109.347C241.993 109.423 241.971 109.489 242.023 109.551L242.138 109.666C242.292 109.638 242.397 109.575 242.447 109.485C242.467 109.388 242.61 109.417 242.879 109.567C242.851 109.533 242.853 109.507 242.887 109.484L242.868 109.461C242.868 109.461 242.869 109.446 242.872 109.42C242.885 109.39 242.896 109.38 242.896 109.38ZM243.96 111.005C244.002 111.009 244.059 110.957 244.141 110.855L243.878 110.537L243.659 110.643L243.96 111.005ZM243.433 110.371L243.503 110.294L243.201 109.931L243.131 110.009L243.433 110.371ZM240.511 106.88C240.459 106.823 240.36 106.757 240.215 106.686L239.964 106.684C240.338 106.995 240.589 107.165 240.712 107.192L240.637 107.101C240.65 107.071 240.61 106.999 240.511 106.88ZM232.284 97.8389C232.391 97.8645 232.419 97.841 232.374 97.7636L232.433 97.5807C232.347 97.6042 232.297 97.6885 232.284 97.8389ZM244.179 112.72C244.179 112.83 244.19 112.941 244.211 113.058C244.225 113.185 244.314 113.297 244.473 113.396C244.344 113.258 244.295 113.113 244.324 112.964C244.565 113.069 244.698 113.045 244.728 112.896C244.724 112.77 244.769 112.67 244.86 112.594C244.708 112.716 244.558 112.697 244.406 112.532L244.18 112.26C244.052 112.107 243.96 112.03 243.908 112.026C244.059 112.207 244.141 112.34 244.164 112.426L244.179 112.72ZM245.234 113.759C245.258 113.787 245.355 113.812 245.521 113.827C245.451 113.679 245.388 113.564 245.344 113.476C245.294 113.388 245.296 113.372 245.348 113.434C245.296 113.372 245.236 113.283 245.163 113.166C245.091 113.045 245.067 113.126 245.099 113.411C245.089 113.52 245.131 113.634 245.234 113.759ZM242.371 110.315C242.447 110.223 242.413 110.089 242.262 109.908L242.081 110.058L242.178 110.36L242.326 110.353L242.371 110.315ZM242.633 110.423C242.542 110.498 242.515 110.564 242.552 110.625C242.7 110.665 242.788 110.673 242.821 110.65L242.633 110.423ZM240.472 108.446C240.491 108.348 240.458 108.256 240.372 108.165L240.194 108.504C240.319 108.516 240.41 108.493 240.472 108.446ZM244.97 113.902C245.017 113.958 245.054 113.956 245.076 113.89C245.093 113.819 245.092 113.772 245.068 113.743L244.812 113.803L244.887 113.894L244.97 113.902ZM239.126 107.151C239.054 107.311 239.015 107.454 239.003 107.579C239.001 107.714 239.066 107.862 239.193 108.015C239.316 108.162 239.464 108.254 239.629 108.285L239.81 108.134C239.621 107.918 239.479 107.69 239.392 107.447C239.211 107.247 239.103 107.065 239.066 106.894L238.86 107.084L239.126 107.151ZM241.356 109.971C241.296 110.007 241.254 110.008 241.23 109.98L241.1 110.031C241.021 110.092 241.022 110.196 241.092 110.344L241.439 110.439C241.459 110.216 241.432 110.061 241.356 109.971ZM227.567 93.8485L227.491 93.7579L226.357 94.7205L226.432 94.8111L227.567 93.8485ZM241.838 111.333L241.996 111.201L241.883 111.065L241.725 111.197L241.838 111.333ZM242.237 112.458C242.36 112.595 242.503 112.629 242.667 112.56C242.735 112.551 242.799 112.541 242.857 112.536C242.926 112.526 242.974 112.51 243.008 112.487C242.693 112.385 242.489 112.277 242.39 112.158L242.29 111.877L242.26 111.518C242.26 111.518 242.203 111.513 242.094 111.503C242.01 111.506 241.95 111.479 241.913 111.424L241.707 111.614C241.858 111.795 241.969 111.957 242.039 112.105C242.042 112.189 242.109 112.305 242.237 112.458ZM238.4 107.544L238.362 107.499C238.334 107.465 238.29 107.482 238.232 107.55C238.255 107.578 238.231 107.617 238.158 107.668C238.202 107.641 238.305 107.661 238.467 107.718L238.4 107.544ZM243.889 114.053L243.661 113.802C243.603 113.807 243.552 113.855 243.503 113.934L243.472 114.036C243.472 114.036 243.477 114.036 243.493 114.038C243.518 114.051 243.533 114.062 243.533 114.062L243.663 114.012L243.889 114.053ZM240.358 110.59C240.514 110.715 240.627 110.741 240.707 110.664C240.756 110.585 240.705 110.455 240.555 110.274L240.358 110.59ZM243.482 113.702L243.237 113.408L243.126 113.481L243.371 113.776L243.482 113.702ZM231.169 99.7239C231.14 99.6951 231.109 99.6974 231.063 99.7351C231.018 99.7728 231.004 99.8081 231.033 99.8369L231.169 99.7239ZM242.894 113.732C242.894 113.732 242.895 113.716 242.897 113.69C242.909 113.676 242.92 113.671 242.92 113.671L242.928 113.588L242.703 113.526L242.894 113.732ZM240.983 112.217C240.985 112.301 241.058 112.417 241.201 112.572C241.276 112.662 241.309 112.76 241.299 112.874L241.603 112.755L241.744 112.58C241.801 112.528 241.859 112.528 241.912 112.574L241.835 112.504L241.797 112.459C241.664 112.656 241.532 112.613 241.39 112.338C241.276 112.212 241.107 112.113 240.894 112.041L240.983 112.217ZM237.907 107.896C237.65 107.956 237.453 108.116 237.318 108.386C237.452 108.409 237.592 108.479 237.738 108.592C237.879 108.715 238.028 108.859 238.179 109.03C238.255 109.121 238.29 109.192 238.285 109.249L238.435 109.43C238.586 109.611 238.828 109.77 239.165 109.916L239.301 109.803L239.308 109.72L238.894 109.221L238.619 108.799L238.512 108.6C238.407 108.491 238.303 108.424 238.195 108.404C238.033 108.347 237.895 108.314 237.786 108.304C237.796 108.189 237.773 108.104 237.726 108.047L237.907 107.896ZM240.29 110.877C240.262 110.843 240.2 110.769 240.101 110.65C239.998 110.526 239.889 110.516 239.77 110.62C239.736 110.643 239.723 110.668 239.72 110.699C239.718 110.725 239.717 110.741 239.717 110.741C239.74 110.769 239.721 110.809 239.664 110.861L240.003 111.269C239.998 111.321 240.034 111.387 240.11 111.467C240.257 111.522 240.407 111.484 240.559 111.362L240.29 110.877ZM241.445 115.147C241.395 115.069 241.382 114.921 241.402 114.703C241.428 114.538 241.413 114.422 241.35 114.364C241.298 114.301 241.252 114.292 241.207 114.33L241.19 114.286C241.046 114.147 240.957 113.914 240.919 113.592L241.33 113.902L241.601 114.136L241.433 114.371L241.584 114.553C241.669 114.644 241.729 114.676 241.763 114.653L241.827 114.638L241.942 114.523C241.928 114.506 241.911 114.457 241.893 114.372C241.87 114.286 241.871 114.213 241.892 114.162C241.801 114.07 241.77 113.953 241.798 113.819C242.125 113.902 242.317 113.977 242.384 114.04L242.371 113.495C242.278 113.262 242.144 113.066 241.964 112.914L242.007 113.587C241.893 113.577 241.827 113.555 241.804 113.527C241.706 113.502 241.641 113.475 241.602 113.445C241.562 113.426 241.51 113.416 241.458 113.411L241.413 113.449C241.305 113.549 241.034 113.529 240.602 113.395L240.391 113.418C240.481 113.635 240.604 113.835 240.754 114.016L241.069 114.694L240.933 114.807C240.876 114.801 240.798 114.737 240.699 114.618C240.746 114.674 240.745 114.69 240.695 114.659C240.641 114.623 240.562 114.574 240.458 114.512C240.442 114.678 240.51 114.851 240.661 115.033L240.895 114.991L241.445 115.147ZM227.232 96.1191L227.044 95.8925L226.999 95.9302L227.142 96.1944L227.232 96.1191ZM225.866 95.0519C225.962 95.0346 226.01 94.971 226.01 94.8559L225.859 94.6747C225.807 94.6176 225.76 94.6133 225.714 94.6613C225.669 94.6886 225.642 94.7542 225.632 94.8631L225.693 95.1197C225.749 95.0726 225.809 95.0467 225.866 95.0519ZM240.461 112.88L240.62 112.518C240.711 112.443 240.749 112.363 240.747 112.279C240.431 112.527 240.276 112.68 240.286 112.739C240.327 112.742 240.367 112.772 240.403 112.833L240.461 112.88ZM240.763 112.783L241.142 113.215L241.261 113.289C241.318 113.236 241.375 113.236 241.428 113.283C241.277 113.112 241.203 113.001 241.208 112.949L240.982 112.677L240.763 112.783ZM227.616 97.1795L227.541 97.0889C227.569 97.0653 227.533 96.9993 227.433 96.8907C227.329 96.7713 227.197 96.733 227.026 96.7696C226.855 96.8114 226.746 96.8589 226.7 96.9069C226.637 96.9587 226.57 97.0624 226.503 97.2236L226.842 97.6314L227.093 97.6335L227.616 97.1795ZM238.565 113.25C238.565 113.25 238.57 113.25 238.586 113.252C238.611 113.265 238.626 113.276 238.626 113.276C238.663 113.322 238.727 113.307 238.818 113.231C238.909 113.156 238.923 113.053 238.867 112.922C238.849 112.779 238.857 112.696 238.89 112.673C238.946 112.636 239.063 112.61 239.232 112.6C239.407 112.626 239.528 112.617 239.59 112.57C239.643 112.449 239.696 112.329 239.749 112.208C239.801 112.098 239.835 112.017 239.855 111.967L239.42 111.466L239.384 111.63L239.11 111.877C239.031 111.938 238.911 111.99 238.74 112.032C238.755 111.866 238.808 111.745 238.899 111.67C238.956 111.617 238.926 111.489 238.809 111.285C238.524 111.311 238.304 111.427 238.15 111.622C238.192 111.735 238.293 111.886 238.444 112.067C238.519 112.158 238.61 112.312 238.715 112.531C238.504 112.554 238.314 112.63 238.149 112.772C238.265 112.992 238.407 113.152 238.565 113.25ZM237.731 110.035L237.822 109.96L237.596 109.688L237.505 109.763L237.731 110.035ZM237.367 110.357C237.391 110.553 237.509 110.689 237.727 110.767L237.834 110.505L237.546 110.457L237.367 110.357ZM239.772 113.319L239.999 113.131L239.886 112.995L239.659 113.183L239.772 113.319ZM226.245 97.3044C226.216 97.2756 226.174 97.277 226.118 97.3137C226.078 97.4094 226.068 97.5183 226.088 97.6456L226.45 97.3442L226.245 97.3044ZM241.643 115.269L241.509 115.362L241.603 115.475L241.737 115.383L241.643 115.269ZM236.032 109.398C236.032 109.398 236.05 109.431 236.085 109.507C236.12 109.578 236.164 109.619 236.221 109.624L236.191 109.496C236.139 109.433 236.143 109.387 236.204 109.351L236.032 109.398ZM239.508 113.232L239.333 113.551C239.46 113.646 239.575 113.646 239.666 113.56C239.615 113.498 239.593 113.449 239.597 113.407L239.508 113.232ZM240.083 114.038C240.157 114.139 240.234 114.209 240.315 114.248C240.343 114.219 240.322 114.17 240.245 114.095L240.019 113.823L240.083 114.038ZM225.535 97.7413C225.473 97.7931 225.453 97.8331 225.482 97.8619C225.518 97.9228 225.533 97.9921 225.525 98.0751C225.491 98.1034 225.463 98.1321 225.433 98.1712C225.413 98.2113 225.375 98.2287 225.323 98.2239C225.214 98.3289 225.172 98.393 225.201 98.4218C225.252 98.4266 225.322 98.4696 225.398 98.5446L225.514 98.4297C225.491 98.2184 225.529 98.0911 225.633 98.0431C225.77 98.0296 225.811 97.9236 225.746 97.7188C225.718 97.6901 225.697 97.683 225.686 97.6924L225.535 97.7413ZM239.801 114.368C239.408 114.091 239.126 113.866 238.965 113.684L239.038 113.795L239.038 114.026C239.261 113.989 239.382 114.041 239.4 114.184C239.395 114.351 239.508 114.487 239.739 114.592L239.792 114.471L239.801 114.368ZM238.118 113.564C238.137 113.467 238.105 113.364 238.02 113.262C237.921 113.264 237.873 113.27 237.873 113.27C237.873 113.27 237.8 113.263 237.666 113.251C237.567 113.242 237.492 113.203 237.445 113.147L237.289 112.798L237.445 112.687C237.682 112.844 237.806 112.913 237.824 112.889L238.026 112.74L237.8 112.468C237.697 112.344 237.595 112.251 237.491 112.189C237.382 112.121 237.273 112.064 237.152 112.011L236.835 112.275L236.621 112.548L236.849 112.799C236.972 112.946 237.222 113.126 237.596 113.328C237.577 113.535 237.628 113.713 237.755 113.866L238.118 113.564ZM239.053 114.32L238.983 114.397L239.171 114.624L239.241 114.546L239.053 114.32ZM239.697 116.408L239.554 116.144C239.44 116.019 239.386 115.93 239.391 115.878C239.51 115.774 239.644 115.734 239.8 115.748C239.603 115.615 239.49 115.537 239.466 115.509C239.39 115.428 239.243 115.326 239.035 115.197L238.763 115.423L239.238 115.948L239.697 116.408ZM224.77 98.5496C224.713 98.5444 224.653 98.5702 224.597 98.6173C224.505 98.7082 224.415 98.8256 224.334 98.9698C224.249 99.1031 224.203 99.261 224.187 99.4374L224.006 99.358C224.006 99.358 223.985 99.3561 223.943 99.3522C223.912 99.3494 223.902 99.3484 223.902 99.3484L223.93 99.4975C223.998 99.4933 224.074 99.5264 224.151 99.6014L224.673 99.1474C224.786 99.1159 224.881 99.0566 224.962 98.9648C225.04 98.8621 225.11 98.7848 225.172 98.733L225.019 98.5725L224.891 98.6026L224.77 98.5496ZM236.6 113.236C236.585 113.052 236.553 112.835 236.493 112.578L236.312 112.729L236.336 112.919L236.6 113.236ZM238.845 116.121C238.817 116.087 238.793 116.059 238.77 116.03C238.757 115.998 238.725 115.948 238.679 115.876C238.686 115.803 238.637 115.715 238.536 115.611L238.5 116.005C238.624 116.027 238.695 116.05 238.725 116.068L238.845 116.121ZM238.225 115.813C238.255 115.774 238.267 115.702 238.265 115.607C238.274 115.509 238.25 115.428 238.203 115.371L237.961 115.496L238.225 115.813ZM234.743 112.271L234.713 112.142L234.507 112.333C234.622 112.453 234.731 112.463 234.839 112.363L234.743 112.271ZM237.686 116.893C237.674 116.683 237.72 116.53 237.811 116.444C237.758 116.397 237.688 116.417 237.596 116.508L237.423 116.576L237.686 116.893ZM223.362 99.9892L223.18 100.14C223.289 100.15 223.346 100.155 223.346 100.155C223.456 100.155 223.514 100.15 223.514 100.15L223.362 99.9892ZM236.636 116.713C236.711 116.636 236.803 116.603 236.917 116.613C236.922 116.556 236.859 116.451 236.736 116.303L236.51 116.032L236.563 116.371C236.604 116.485 236.631 116.597 236.636 116.713ZM220.668 102.44C220.696 102.417 220.784 102.425 220.937 102.465C221.102 102.496 221.196 102.499 221.23 102.471L221.394 102.277C221.365 102.248 221.39 102.203 221.47 102.137L221.358 101.981C221.286 101.974 221.264 101.925 221.289 101.828C221.4 101.812 221.5 101.858 221.59 101.96C221.927 101.771 222.262 101.536 222.596 101.258C222.497 100.971 222.47 100.817 222.514 100.79L222.72 100.6C222.821 100.525 222.868 100.462 222.863 100.404L222.031 101.038C222.106 101.129 222.139 101.226 222.131 101.319C221.911 101.257 221.773 101.224 221.721 101.219C221.664 101.214 221.559 101.277 221.412 101.4L221.223 101.634C221.149 101.81 221.058 101.948 220.955 102.048L221.032 102.348L220.811 102.244L220.683 102.274L220.675 102.357C220.675 102.357 220.674 102.373 220.671 102.399C220.669 102.43 220.668 102.44 220.668 102.44ZM236.523 116.577C236.528 116.52 236.441 116.386 236.267 116.177L236.193 116.295L236.132 116.499L236.328 116.643L236.523 116.577ZM235.78 116.006L235.724 115.938L235.514 115.94L235.563 116.091L235.78 116.006ZM236.631 117.445L236.443 117.218L236.328 117.333L236.516 117.559L236.631 117.445ZM234.231 115.341C234.221 115.45 234.277 115.58 234.404 115.733C234.479 115.824 234.543 115.872 234.6 115.877L234.715 115.992L234.864 115.734C234.598 115.552 234.39 115.423 234.231 115.341ZM232.047 114.973C232.166 115.036 232.326 115.124 232.526 115.226C232.736 115.329 232.915 115.366 233.059 115.338C233.084 115.073 233.038 114.776 232.932 114.447L232.668 113.9C232.645 113.814 232.685 113.724 232.776 113.638L232.79 113.493L232.761 113.344L232.684 113.274C232.533 113.093 232.396 113.049 232.277 113.153C232.185 113.238 232.054 113.305 231.883 113.347C231.872 113.455 231.877 113.524 231.905 113.558C231.868 113.622 231.878 113.681 231.931 113.728C231.873 113.9 231.844 113.992 231.844 113.992L231.731 114.086C231.769 114.241 231.816 114.413 231.872 114.601C231.939 114.785 231.995 114.91 232.047 114.973ZM224.741 106.832C224.892 107.013 225.075 107.119 225.297 107.155C225.529 107.187 225.727 107.137 225.897 107.001C225.971 106.934 226.005 106.843 226.007 106.718C226.001 106.602 225.973 106.511 225.928 106.439C225.979 106.454 226.1 106.381 226.282 106.22L226.094 105.994C225.697 105.759 225.377 105.604 225.133 105.529C224.888 105.464 224.662 105.533 224.465 105.739C224.579 105.86 224.631 106.032 224.626 106.256C224.65 106.285 224.644 106.347 224.609 106.443C224.619 106.622 224.665 106.751 224.741 106.832ZM234.658 116.384L234.599 116.337C234.525 116.231 234.5 116.166 234.533 116.143L234.462 116.011L234.23 115.801C234.197 115.824 234.157 115.805 234.109 115.748L234.034 115.657C234.034 115.657 234.026 115.746 234.009 115.927L233.951 116.11L233.813 116.244C233.785 116.21 233.752 116.217 233.707 116.255L234.01 116.597C234.198 116.666 234.367 116.64 234.52 116.518L234.658 116.384ZM220.803 102.787L220.773 102.659L220.622 102.478C220.588 102.506 220.548 102.487 220.502 102.425L220.23 102.651L220.324 102.764C220.352 102.741 220.397 102.766 220.463 102.84L220.622 102.938L220.803 102.787ZM228.727 113.077L228.763 112.913L228.5 112.596C228.321 112.381 227.969 112.218 227.436 112.101L228.024 112.992L228.267 113.077C228.342 113.167 228.442 113.218 228.567 113.23L228.727 113.077ZM230.514 115.71C230.562 115.767 230.589 115.864 230.593 115.99L230.903 116.039L231.058 115.718L230.733 115.605C230.658 115.514 230.597 115.493 230.55 115.546C230.473 115.591 230.463 115.648 230.514 115.71ZM227.729 113.237C227.677 113.174 227.66 113.136 227.677 113.127L227.562 113.012C227.419 112.858 227.307 112.826 227.215 112.917C227.126 112.977 227.09 113.021 227.118 113.055C227.083 113.093 227.098 113.105 227.156 113.1L227.35 113.264L227.501 113.446L227.729 113.237ZM224.457 109.693C224.429 109.659 224.448 109.613 224.512 109.551L224.266 109.487C224.267 109.597 224.3 109.689 224.366 109.768L224.457 109.693ZM229.896 116.972C230.024 116.952 230.097 116.891 230.123 116.783L229.898 116.721L229.896 116.972ZM229.325 116.584C229.55 116.532 229.634 116.414 229.567 116.23L229.414 116.069C229.311 115.945 229.202 115.935 229.082 116.039C229.021 116.086 229.016 116.137 229.069 116.184L229.052 116.371C229.104 116.376 229.197 116.447 229.325 116.584ZM226.738 114.003L226.716 113.792L226.603 113.656C226.474 113.519 226.333 113.464 226.179 113.491C226.195 113.77 226.24 113.963 226.314 114.069L226.557 114.154L226.738 114.003Z" fill="#BE2726"/>
<mask id="mask0_201_334" style="mask-type:luminance" maskUnits="userSpaceOnUse" x="56" y="113" width="179" height="166">
<path d="M56.6211 113.302H234.257V278.635H56.6211V113.302Z" fill="white"/>
</mask>
<g mask="url(#mask0_201_334)">
<path d="M128.595 276.182C134.996 277.594 141.433 278.297 147.829 278.297C164.605 278.297 181.053 273.479 195.506 264.146C214.845 251.656 228.522 232.307 234.022 209.672C234.339 208.375 233.74 207.031 232.563 206.396C231.391 205.76 229.938 205.995 229.027 206.969C224.365 211.937 219.147 216.37 213.543 220.234V206.042C213.543 204.422 212.225 203.104 210.605 203.104H113.662V173.729C113.662 172.104 112.35 170.792 110.725 170.792H98.9748C97.355 170.792 96.0373 172.104 96.0373 173.729V201.588C80.9436 176.901 81.8238 145.073 98.4592 118.255C99.204 117.057 98.9904 115.5 97.954 114.547C96.9123 113.588 95.3446 113.51 94.2144 114.349C56.3967 142.396 46.6363 195.896 71.98 236.151C84.9592 256.76 105.069 270.974 128.595 276.182ZM101.912 176.667H107.787V206.042C107.787 207.661 109.105 208.979 110.725 208.979H207.668V224.016C205.74 225.146 203.782 226.187 201.793 227.172V226.604C201.793 220.125 196.522 214.854 190.043 214.854H119.537C116.095 214.854 112.928 216.349 110.751 218.823C107.548 216.104 104.6 213.094 101.912 209.838V176.667ZM195.918 226.604V229.844C179.053 236.802 160.641 238.672 143.464 234.87C133.11 232.578 123.631 228.333 115.438 222.463C116.511 221.396 117.949 220.729 119.537 220.729H190.043C193.282 220.729 195.918 223.364 195.918 226.604ZM86.1623 129.437C75.6675 155.052 77.4071 183.094 91.5425 205.542C102.803 223.417 120.793 235.875 142.199 240.609C166.246 245.927 192.548 240.901 214.36 226.807C218.079 224.406 221.636 221.766 225.006 218.901C218.631 235.474 207.293 249.547 192.324 259.213C173.688 271.24 151.506 275.234 129.871 270.448C107.881 265.583 89.0894 252.292 76.954 233.021C56.0686 199.859 60.6415 157.094 86.1623 129.437Z" fill="#F4F2EC"/>
</g>
<path d="M128.355 200.167C134.834 200.167 140.105 194.896 140.105 188.417C140.105 181.938 134.834 176.667 128.355 176.667C121.87 176.667 116.6 181.938 116.6 188.417C116.6 194.896 121.87 200.167 128.355 200.167ZM128.355 182.542C131.594 182.542 134.23 185.177 134.23 188.417C134.23 191.656 131.594 194.292 128.355 194.292C125.11 194.292 122.48 191.656 122.48 188.417C122.48 185.177 125.11 182.542 128.355 182.542Z" fill="#F4F2EC"/>
<path d="M145.98 200.167H207.668C209.293 200.167 210.605 198.849 210.605 197.229V191.354C210.605 181.63 202.704 173.729 192.98 173.729H145.98C144.355 173.729 143.043 175.042 143.043 176.667V197.229C143.043 198.849 144.355 200.167 145.98 200.167ZM148.918 179.604H192.98C199.46 179.604 204.73 184.875 204.73 191.354V194.292H148.918V179.604Z" fill="#F4F2EC"/>
<path d="M146.569 148.463C145.897 149.354 145.793 150.542 146.287 151.542C146.782 152.536 147.803 153.161 148.918 153.161H160.668V147.286H154.793L160.079 140.24C160.751 139.349 160.855 138.156 160.36 137.161C159.86 136.167 158.845 135.536 157.73 135.536H145.98V141.411H151.855L146.569 148.463Z" fill="#F4F2EC"/>
<path d="M167.402 124.646C166.563 125.49 166.308 126.75 166.766 127.849C167.219 128.948 168.292 129.661 169.48 129.661H190.042V123.786H176.568L189.183 111.177C190.022 110.338 190.277 109.073 189.818 107.974C189.365 106.88 188.292 106.161 187.105 106.161H166.542V112.036H180.016L167.402 124.646Z" fill="#F4F2EC"/>
<path d="M137.168 161.979C135.543 161.979 134.23 163.292 134.23 164.917C134.23 166.537 135.543 167.854 137.168 167.854C138.788 167.854 140.105 166.537 140.105 164.917C140.105 163.292 138.788 161.979 137.168 161.979Z" fill="#F4F2EC"/>
<path d="M150.557 7.01562C169.932 7.01562 188.729 10.8125 206.427 18.2969C223.516 25.526 238.865 35.8802 252.052 49.0625C265.234 62.2396 275.589 77.599 282.818 94.6875C290.302 112.385 294.099 131.182 294.099 150.557C294.099 169.938 290.302 188.734 282.818 206.427C275.589 223.521 265.234 238.87 252.052 252.057C238.875 265.25 223.516 275.594 206.427 282.823C188.729 290.302 169.932 294.104 150.557 294.104C131.177 294.104 112.38 290.302 94.6875 282.823C77.5938 275.594 62.2448 265.24 49.0573 252.057C35.875 238.88 25.5208 223.521 18.2917 206.427C10.8125 188.734 7.01042 169.938 7.01042 150.557C7.01042 131.182 10.8125 112.385 18.2917 94.6875C25.5208 77.599 35.875 62.25 49.0573 49.0625C62.2396 35.8802 77.5938 25.526 94.6875 18.2969C112.38 10.8125 131.177 7.01562 150.557 7.01562ZM150.557 0C67.401 0 0 67.401 0 150.552C0 233.703 67.401 301.104 150.557 301.104C233.708 301.104 301.109 233.703 301.109 150.552C301.109 67.401 233.708 0 150.557 0Z" fill="#F4F2EC"/>
<path d="M150.439 18.1979C168.392 18.1979 185.803 21.7135 202.194 28.651C218.027 35.3438 232.246 44.9323 244.46 57.1458C256.673 69.3594 266.262 83.5781 272.96 99.4115C279.892 115.802 283.408 133.214 283.408 151.172C283.408 169.125 279.892 186.536 272.96 202.927C266.262 218.76 256.673 232.984 244.46 245.193C232.246 257.406 218.027 266.995 202.194 273.693C185.803 280.625 168.392 284.141 150.439 284.141C132.48 284.141 115.069 280.625 98.6784 273.693C82.8451 266.995 68.6263 257.406 56.4128 245.193C44.1992 232.984 34.6107 218.76 27.918 202.927C20.9805 186.536 17.4648 169.125 17.4648 151.172C17.4648 133.214 20.9805 115.802 27.918 99.4115C34.6107 83.5781 44.1992 69.3594 56.4128 57.1458C68.6263 44.9323 82.8451 35.3438 98.6784 28.651C115.069 21.7135 132.48 18.1979 150.439 18.1979ZM150.439 14.6875C75.0638 14.6875 13.9648 75.7865 13.9648 151.161C13.9648 226.536 75.0638 287.635 150.439 287.635C225.814 287.635 286.913 226.536 286.913 151.161C286.913 75.7865 225.814 14.6875 150.439 14.6875Z" fill="#F4F2EC"/>
</svg>
